<svg width="1481" height="283" viewBox="0 0 1481 283" fill="none" xmlns="http://www.w3.org/2000/svg">
<path d="M31.0088 80.2857H47.0802V96.3571H31.0088V80.2857ZM47.0802 80.2857H63.1516V96.3571H47.0802V80.2857ZM63.1516 80.2857H79.2231V96.3571H63.1516V80.2857ZM79.2231 80.2857H95.2945V96.3571H79.2231V80.2857ZM95.2945 80.2857H111.366V96.3571H95.2945V80.2857ZM111.366 80.2857H127.437V96.3571H111.366V80.2857ZM111.366 96.3571H127.437V112.429H111.366V96.3571ZM95.2945 96.3571H111.366V112.429H95.2945V96.3571ZM79.2231 96.3571H95.2945V112.429H79.2231V96.3571ZM63.1516 96.3571H79.2231V112.429H63.1516V96.3571ZM47.0802 96.3571H63.1516V112.429H47.0802V96.3571ZM31.0088 96.3571H47.0802V112.429H31.0088V96.3571ZM127.437 96.3571H143.509V112.429H127.437V96.3571ZM127.437 112.429H143.509V128.5H127.437V112.429ZM127.437 128.5H143.509V144.571H127.437V128.5ZM111.366 128.5H127.437V144.571H111.366V128.5ZM111.366 112.429H127.437V128.5H111.366V112.429ZM111.366 144.571H127.437V160.643H111.366V144.571ZM95.2945 144.571H111.366V160.643H95.2945V144.571ZM79.2231 144.571H95.2945V160.643H79.2231V144.571ZM63.1516 144.571H79.2231V160.643H63.1516V144.571ZM47.0802 144.571H63.1516V160.643H47.0802V144.571ZM47.0802 128.5H63.1516V144.571H47.0802V128.5ZM47.0802 112.429H63.1516V128.5H47.0802V112.429ZM31.0088 112.429H47.0802V128.5H31.0088V112.429ZM31.0088 128.5H47.0802V144.571H31.0088V128.5ZM31.0088 144.571H47.0802V160.643H31.0088V144.571ZM31.0088 160.643H47.0802V176.714H31.0088V160.643ZM47.0802 160.643H63.1516V176.714H47.0802V160.643ZM63.1516 160.643H79.2231V176.714H63.1516V160.643ZM79.2231 160.643H95.2945V176.714H79.2231V160.643ZM95.2945 160.643H111.366V176.714H95.2945V160.643ZM111.366 160.643H127.437V176.714H111.366V160.643ZM127.437 160.643H143.509V176.714H127.437V160.643ZM127.437 176.714H143.509V192.786H127.437V176.714ZM111.366 176.714H127.437V192.786H111.366V176.714ZM111.366 208.857H127.437V224.929H111.366V208.857ZM127.437 208.857H143.509V224.929H127.437V208.857ZM127.437 192.786H143.509V208.857H127.437V192.786ZM111.366 192.786H127.437V208.857H111.366V192.786ZM111.366 224.929H127.437V241H111.366V224.929ZM95.2945 224.929H111.366V241H95.2945V224.929ZM79.2231 224.929H95.2945V241H79.2231V224.929ZM63.1516 224.929H79.2231V241H63.1516V224.929ZM47.0802 224.929H63.1516V241H47.0802V224.929ZM31.0088 224.929H47.0802V241H31.0088V224.929ZM31.0088 208.857H47.0802V224.929H31.0088V208.857ZM31.0088 192.786H47.0802V208.857H31.0088V192.786ZM31.0088 176.714H47.0802V192.786H31.0088V176.714ZM47.0802 176.714H63.1516V192.786H47.0802V176.714ZM47.0802 192.786H63.1516V208.857H47.0802V192.786ZM47.0802 208.857H63.1516V224.929H47.0802V208.857ZM63.1516 208.857H79.2231V224.929H63.1516V208.857ZM79.2231 208.857H95.2945V224.929H79.2231V208.857ZM95.2945 208.857H111.366V224.929H95.2945V208.857ZM229.693 96.3571H245.765V112.429H229.693V96.3571ZM293.979 96.3571H310.051V112.429H293.979V96.3571ZM293.979 112.429H310.051V128.5H293.979V112.429ZM310.051 96.3571H326.122V112.429H310.051V96.3571ZM310.051 112.429H326.122V128.5H310.051V112.429ZM310.051 128.5H326.122V144.571H310.051V128.5ZM310.051 144.571H326.122V160.643H310.051V144.571ZM310.051 160.643H326.122V176.714H310.051V160.643ZM310.051 176.714H326.122V192.786H310.051V176.714ZM310.051 192.786H326.122V208.857H310.051V192.786ZM310.051 208.857H326.122V224.929H310.051V208.857ZM293.979 208.857H310.051V224.929H293.979V208.857ZM293.979 192.786H310.051V208.857H293.979V192.786ZM293.979 176.714H310.051V192.786H293.979V176.714ZM293.979 160.643H310.051V176.714H293.979V160.643ZM293.979 144.571H310.051V160.643H293.979V144.571ZM293.979 128.5H310.051V144.571H293.979V128.5ZM277.908 192.786H293.979V208.857H277.908V192.786ZM277.908 208.857H293.979V224.929H277.908V208.857ZM293.979 224.929H310.051V241H293.979V224.929ZM277.908 224.929H293.979V241H277.908V224.929ZM261.836 224.929H277.908V241H261.836V224.929ZM261.836 208.857H277.908V224.929H261.836V208.857ZM245.765 224.929H261.836V241H245.765V224.929ZM229.693 224.929H245.765V241H229.693V224.929ZM229.693 208.857H245.765V224.929H229.693V208.857ZM245.765 208.857H261.836V224.929H245.765V208.857ZM245.765 192.786H261.836V208.857H245.765V192.786ZM229.693 192.786H245.765V208.857H229.693V192.786ZM213.622 208.857H229.693V224.929H213.622V208.857ZM213.622 192.786H229.693V208.857H213.622V192.786ZM213.622 176.714H229.693V192.786H213.622V176.714ZM213.622 160.643H229.693V176.714H213.622V160.643ZM213.622 144.571H229.693V160.643H213.622V144.571ZM213.622 128.5H229.693V144.571H213.622V128.5ZM213.622 112.429H229.693V128.5H213.622V112.429ZM229.693 112.429H245.765V128.5H229.693V112.429ZM213.622 96.3571H229.693V112.429H213.622V96.3571ZM229.693 128.5H245.765V144.571H229.693V128.5ZM229.693 144.571H245.765V160.643H229.693V144.571ZM229.693 160.643H245.765V176.714H229.693V160.643ZM229.693 176.714H245.765V192.786H229.693V176.714ZM213.622 80.2857H229.693V96.3571H213.622V80.2857ZM229.693 80.2857H245.765V96.3571H229.693V80.2857ZM293.979 80.2857H310.051V96.3571H293.979V80.2857ZM310.051 80.2857H326.122V96.3571H310.051V80.2857ZM396.235 224.929H412.307V241H396.235V224.929ZM412.307 224.929H428.378V241H412.307V224.929ZM412.307 208.857H428.378V224.929H412.307V208.857ZM412.307 192.786H428.378V208.857H412.307V192.786ZM412.307 176.714H428.378V192.786H412.307V176.714ZM412.307 160.643H428.378V176.714H412.307V160.643ZM412.307 144.571H428.378V160.643H412.307V144.571ZM396.235 144.571H412.307V160.643H396.235V144.571ZM396.235 160.643H412.307V176.714H396.235V160.643ZM396.235 176.714H412.307V192.786H396.235V176.714ZM396.235 192.786H412.307V208.857H396.235V192.786ZM396.235 208.857H412.307V224.929H396.235V208.857ZM396.235 128.5H412.307V144.571H396.235V128.5ZM412.307 128.5H428.378V144.571H412.307V128.5ZM412.307 112.429H428.378V128.5H412.307V112.429ZM412.307 96.3571H428.378V112.429H412.307V96.3571ZM412.307 80.2857H428.378V96.3571H412.307V80.2857ZM396.235 80.2857H412.307V96.3571H396.235V80.2857ZM396.235 96.3571H412.307V112.429H396.235V96.3571ZM396.235 112.429H412.307V128.5H396.235V112.429ZM498.575 80.2857H514.647V96.3571H498.575V80.2857ZM514.647 80.2857H530.718V96.3571H514.647V80.2857ZM514.647 96.3571H530.718V112.429H514.647V96.3571ZM514.647 112.429H530.718V128.5H514.647V112.429ZM514.647 128.5H530.718V144.571H514.647V128.5ZM498.575 128.5H514.647V144.571H498.575V128.5ZM498.575 112.429H514.647V128.5H498.575V112.429ZM498.575 96.3571H514.647V112.429H498.575V96.3571ZM498.575 144.571H514.647V160.643H498.575V144.571ZM498.575 160.643H514.647V176.714H498.575V160.643ZM498.575 176.714H514.647V192.786H498.575V176.714ZM514.647 160.643H530.718V176.714H514.647V160.643ZM514.647 144.571H530.718V160.643H514.647V144.571ZM514.647 176.714H530.718V192.786H514.647V176.714ZM514.647 192.786H530.718V208.857H514.647V192.786ZM498.575 208.857H514.647V224.929H498.575V208.857ZM498.575 192.786H514.647V208.857H498.575V192.786ZM498.575 224.929H514.647V241H498.575V224.929ZM514.647 224.929H530.718V241H514.647V224.929ZM514.647 208.857H530.718V224.929H514.647V208.857ZM530.718 224.929H546.789V241H530.718V224.929ZM546.789 224.929H562.861V241H546.789V224.929ZM562.861 224.929H578.932V241H562.861V224.929ZM562.861 208.857H578.932V224.929H562.861V208.857ZM546.789 208.857H562.861V224.929H546.789V208.857ZM530.718 208.857H546.789V224.929H530.718V208.857ZM681.105 80.2857H697.176V96.3571H681.105V80.2857ZM665.033 80.2857H681.105V96.3571H665.033V80.2857ZM665.033 96.3571H681.105V112.429H665.033V96.3571ZM681.105 96.3571H697.176V112.429H681.105V96.3571ZM697.176 96.3571H713.248V112.429H697.176V96.3571ZM697.176 80.2857H713.248V96.3571H697.176V80.2857ZM713.248 80.2857H729.319V96.3571H713.248V80.2857ZM729.319 80.2857H745.39V96.3571H729.319V80.2857ZM729.319 96.3571H745.39V112.429H729.319V96.3571ZM713.248 96.3571H729.319V112.429H713.248V96.3571ZM713.248 112.429H729.319V128.5H713.248V112.429ZM729.319 112.429H745.39V128.5H729.319V112.429ZM745.39 96.3571H761.462V112.429H745.39V96.3571ZM745.39 112.429H761.462V128.5H745.39V112.429ZM745.39 128.5H761.462V144.571H745.39V128.5ZM745.39 144.571H761.462V160.643H745.39V144.571ZM745.39 160.643H761.462V176.714H745.39V160.643ZM745.39 176.714H761.462V192.786H745.39V176.714ZM745.39 192.786H761.462V208.857H745.39V192.786ZM745.39 208.857H761.462V224.929H745.39V208.857ZM729.319 208.857H745.39V224.929H729.319V208.857ZM729.319 192.786H745.39V208.857H729.319V192.786ZM729.319 176.714H745.39V192.786H729.319V176.714ZM729.319 160.643H745.39V176.714H729.319V160.643ZM729.319 144.571H745.39V160.643H729.319V144.571ZM729.319 128.5H745.39V144.571H729.319V128.5ZM713.248 192.786H729.319V208.857H713.248V192.786ZM713.248 208.857H729.319V224.929H713.248V208.857ZM729.319 224.929H745.39V241H729.319V224.929ZM713.248 224.929H729.319V241H713.248V224.929ZM697.176 224.929H713.248V241H697.176V224.929ZM697.176 208.857H713.248V224.929H697.176V208.857ZM681.105 224.929H697.176V241H681.105V224.929ZM665.033 224.929H681.105V241H665.033V224.929ZM665.033 208.857H681.105V224.929H665.033V208.857ZM681.105 208.857H697.176V224.929H681.105V208.857ZM665.033 192.786H681.105V208.857H665.033V192.786ZM648.962 208.857H665.033V224.929H648.962V208.857ZM648.962 192.786H665.033V208.857H648.962V192.786ZM648.962 176.714H665.033V192.786H648.962V176.714ZM648.962 160.643H665.033V176.714H648.962V160.643ZM648.962 144.571H665.033V160.643H648.962V144.571ZM648.962 128.5H665.033V144.571H648.962V128.5ZM648.962 112.429H665.033V128.5H648.962V112.429ZM665.033 112.429H681.105V128.5H665.033V112.429ZM648.962 96.3571H665.033V112.429H648.962V96.3571ZM665.033 128.5H681.105V144.571H665.033V128.5ZM665.033 144.571H681.105V160.643H665.033V144.571ZM665.033 160.643H681.105V176.714H665.033V160.643ZM665.033 176.714H681.105V192.786H665.033V176.714ZM648.962 224.929H665.033V241H648.962V224.929ZM648.962 80.2857H665.033V96.3571H648.962V80.2857Z" fill="#231F20"/>
<path d="M3 264H0.5V266.5H3V264ZM177.494 264V266.5H179.994V264H177.494ZM177.494 61V58.5H174.994V61H177.494ZM355.05 61H357.55V58.5H355.05V61ZM355.05 264H352.55V266.5H355.05V264ZM471.379 264V266.5H473.879V264H471.379ZM471.379 61V58.5H468.879V61H471.379ZM609.138 61H611.638V58.5H609.138V61ZM609.138 264H606.638V266.5H609.138V264ZM802 264V266.5H804.5V264H802ZM788.667 61C788.667 68.3638 794.636 74.3333 802 74.3333C809.364 74.3333 815.333 68.3638 815.333 61C815.333 53.6362 809.364 47.6667 802 47.6667C794.636 47.6667 788.667 53.6362 788.667 61ZM3 61H0.5V63.03H3H5.5V61H3ZM3 67.09H0.5V71.15H3H5.5V67.09H3ZM3 75.21H0.5V79.27H3H5.5V75.21H3ZM3 83.33H0.5V87.39H3H5.5V83.33H3ZM3 91.45H0.5V95.51H3H5.5V91.45H3ZM3 99.57H0.5V103.63H3H5.5V99.57H3ZM3 107.69H0.5V111.75H3H5.5V107.69H3ZM3 115.81H0.5V119.87H3H5.5V115.81H3ZM3 123.93H0.5V127.99H3H5.5V123.93H3ZM3 132.05H0.5V136.11H3H5.5V132.05H3ZM3 140.17H0.5V144.23H3H5.5V140.17H3ZM3 148.29H0.5V152.35H3H5.5V148.29H3ZM3 156.41H0.5V160.47H3H5.5V156.41H3ZM3 164.53H0.5V168.59H3H5.5V164.53H3ZM3 172.65H0.5V176.71H3H5.5V172.65H3ZM3 180.77H0.5V184.83H3H5.5V180.77H3ZM3 188.89H0.5V192.95H3H5.5V188.89H3ZM3 197.01H0.5V201.07H3H5.5V197.01H3ZM3 205.13H0.5V209.19H3H5.5V205.13H3ZM3 213.25H0.5V217.31H3H5.5V213.25H3ZM3 221.37H0.5V225.43H3H5.5V221.37H3ZM3 229.49H0.5V233.55H3H5.5V229.49H3ZM3 237.61H0.5V241.67H3H5.5V237.61H3ZM3 245.73H0.5V249.79H3H5.5V245.73H3ZM3 253.85H0.5V257.91H3H5.5V253.85H3ZM3 261.97H0.5V264H3H5.5V261.97H3ZM3 264V266.5H4.98289V264V261.5H3V264ZM8.94867 264V266.5H12.9144V264V261.5H8.94867V264ZM16.8802 264V266.5H20.846V264V261.5H16.8802V264ZM24.8118 264V266.5H28.7776V264V261.5H24.8118V264ZM32.7433 264V266.5H36.7091V264V261.5H32.7433V264ZM40.6749 264V266.5H44.6407V264V261.5H40.6749V264ZM48.6064 264V266.5H52.5722V264V261.5H48.6064V264ZM56.538 264V266.5H60.5038V264V261.5H56.538V264ZM64.4696 264V266.5H68.4353V264V261.5H64.4696V264ZM72.4011 264V266.5H76.3669V264V261.5H72.4011V264ZM80.3327 264V266.5H84.2984V264V261.5H80.3327V264ZM88.2642 264V266.5H92.23V264V261.5H88.2642V264ZM96.1958 264V266.5H100.162V264V261.5H96.1958V264ZM104.127 264V266.5H108.093V264V261.5H104.127V264ZM112.059 264V266.5H116.025V264V261.5H112.059V264ZM119.99 264V266.5H123.956V264V261.5H119.99V264ZM127.922 264V266.5H131.888V264V261.5H127.922V264ZM135.854 264V266.5H139.819V264V261.5H135.854V264ZM143.785 264V266.5H147.751V264V261.5H143.785V264ZM151.717 264V266.5H155.682V264V261.5H151.717V264ZM159.648 264V266.5H163.614V264V261.5H159.648V264ZM167.58 264V266.5H171.545V264V261.5H167.58V264ZM175.511 264V266.5H177.494V264V261.5H175.511V264ZM177.494 264H179.994V261.97H177.494H174.994V264H177.494ZM177.494 257.91H179.994V253.85H177.494H174.994V257.91H177.494ZM177.494 249.79H179.994V245.73H177.494H174.994V249.79H177.494ZM177.494 241.67H179.994V237.61H177.494H174.994V241.67H177.494ZM177.494 233.55H179.994V229.49H177.494H174.994V233.55H177.494ZM177.494 225.43H179.994V221.37H177.494H174.994V225.43H177.494ZM177.494 217.31H179.994V213.25H177.494H174.994V217.31H177.494ZM177.494 209.19H179.994V205.13H177.494H174.994V209.19H177.494ZM177.494 201.07H179.994V197.01H177.494H174.994V201.07H177.494ZM177.494 192.95H179.994V188.89H177.494H174.994V192.95H177.494ZM177.494 184.83H179.994V180.77H177.494H174.994V184.83H177.494ZM177.494 176.71H179.994V172.65H177.494H174.994V176.71H177.494ZM177.494 168.59H179.994V164.53H177.494H174.994V168.59H177.494ZM177.494 160.47H179.994V156.41H177.494H174.994V160.47H177.494ZM177.494 152.35H179.994V148.29H177.494H174.994V152.35H177.494ZM177.494 144.23H179.994V140.17H177.494H174.994V144.23H177.494ZM177.494 136.11H179.994V132.05H177.494H174.994V136.11H177.494ZM177.494 127.99H179.994V123.93H177.494H174.994V127.99H177.494ZM177.494 119.87H179.994V115.81H177.494H174.994V119.87H177.494ZM177.494 111.75H179.994V107.69H177.494H174.994V111.75H177.494ZM177.494 103.63H179.994V99.57H177.494H174.994V103.63H177.494ZM177.494 95.5101H179.994V91.4501H177.494H174.994V95.5101H177.494ZM177.494 87.3901H179.994V83.3301H177.494H174.994V87.3901H177.494ZM177.494 79.2701H179.994V75.2101H177.494H174.994V79.2701H177.494ZM177.494 71.1501H179.994V67.0901H177.494H174.994V71.1501H177.494ZM177.494 63.0301H179.994V61H177.494H174.994V63.0301H177.494ZM177.494 61V63.5H179.512V61V58.5H177.494V61ZM183.547 61V63.5H187.583V61V58.5H183.547V61ZM191.618 61V63.5H195.653V61V58.5H191.618V61ZM199.689 61V63.5H203.724V61V58.5H199.689V61ZM207.759 61V63.5H211.795V61V58.5H207.759V61ZM215.83 61V63.5H219.865V61V58.5H215.83V61ZM223.901 61V63.5H227.936V61V58.5H223.901V61ZM231.972 61V63.5H236.007V61V58.5H231.972V61ZM240.042 61V63.5H244.078V61V58.5H240.042V61ZM248.113 61V63.5H252.148V61V58.5H248.113V61ZM256.184 61V63.5H260.219V61V58.5H256.184V61ZM264.254 61V63.5H268.29V61V58.5H264.254V61ZM272.325 61V63.5H276.36V61V58.5H272.325V61ZM280.396 61V63.5H284.431V61V58.5H280.396V61ZM288.466 61V63.5H292.502V61V58.5H288.466V61ZM296.537 61V63.5H300.573V61V58.5H296.537V61ZM304.608 61V63.5H308.643V61V58.5H304.608V61ZM312.679 61V63.5H316.714V61V58.5H312.679V61ZM320.749 61V63.5H324.785V61V58.5H320.749V61ZM328.82 61V63.5H332.855V61V58.5H328.82V61ZM336.891 61V63.5H340.926V61V58.5H336.891V61ZM344.961 61V63.5H348.997V61V58.5H344.961V61ZM353.032 61V63.5H355.05V61V58.5H353.032V61ZM355.05 61H352.55V63.03H355.05H357.55V61H355.05ZM355.05 67.09H352.55V71.15H355.05H357.55V67.09H355.05ZM355.05 75.21H352.55V79.27H355.05H357.55V75.21H355.05ZM355.05 83.33H352.55V87.39H355.05H357.55V83.33H355.05ZM355.05 91.45H352.55V95.51H355.05H357.55V91.45H355.05ZM355.05 99.57H352.55V103.63H355.05H357.55V99.57H355.05ZM355.05 107.69H352.55V111.75H355.05H357.55V107.69H355.05ZM355.05 115.81H352.55V119.87H355.05H357.55V115.81H355.05ZM355.05 123.93H352.55V127.99H355.05H357.55V123.93H355.05ZM355.05 132.05H352.55V136.11H355.05H357.55V132.05H355.05ZM355.05 140.17H352.55V144.23H355.05H357.55V140.17H355.05ZM355.05 148.29H352.55V152.35H355.05H357.55V148.29H355.05ZM355.05 156.41H352.55V160.47H355.05H357.55V156.41H355.05ZM355.05 164.53H352.55V168.59H355.05H357.55V164.53H355.05ZM355.05 172.65H352.55V176.71H355.05H357.55V172.65H355.05ZM355.05 180.77H352.55V184.83H355.05H357.55V180.77H355.05ZM355.05 188.89H352.55V192.95H355.05H357.55V188.89H355.05ZM355.05 197.01H352.55V201.07H355.05H357.55V197.01H355.05ZM355.05 205.13H352.55V209.19H355.05H357.55V205.13H355.05ZM355.05 213.25H352.55V217.31H355.05H357.55V213.25H355.05ZM355.05 221.37H352.55V225.43H355.05H357.55V221.37H355.05ZM355.05 229.49H352.55V233.55H355.05H357.55V229.49H355.05ZM355.05 237.61H352.55V241.67H355.05H357.55V237.61H355.05ZM355.05 245.73H352.55V249.79H355.05H357.55V245.73H355.05ZM355.05 253.85H352.55V257.91H355.05H357.55V253.85H355.05ZM355.05 261.97H352.55V264H355.05H357.55V261.97H355.05ZM355.05 264V266.5H356.989V264V261.5H355.05V264ZM360.866 264V266.5H364.744V264V261.5H360.866V264ZM368.622 264V266.5H372.499V264V261.5H368.622V264ZM376.377 264V266.5H380.255V264V261.5H376.377V264ZM384.132 264V266.5H388.01V264V261.5H384.132V264ZM391.887 264V266.5H395.765V264V261.5H391.887V264ZM399.643 264V266.5H403.52V264V261.5H399.643V264ZM407.398 264V266.5H411.276V264V261.5H407.398V264ZM415.153 264V266.5H419.031V264V261.5H415.153V264ZM422.909 264V266.5H426.786V264V261.5H422.909V264ZM430.664 264V266.5H434.542V264V261.5H430.664V264ZM438.419 264V266.5H442.297V264V261.5H438.419V264ZM446.175 264V266.5H450.052V264V261.5H446.175V264ZM453.93 264V266.5H457.808V264V261.5H453.93V264ZM461.685 264V266.5H465.563V264V261.5H461.685V264ZM469.44 264V266.5H471.379V264V261.5H469.44V264ZM471.379 264H473.879V261.97H471.379H468.879V264H471.379ZM471.379 257.91H473.879V253.85H471.379H468.879V257.91H471.379ZM471.379 249.79H473.879V245.73H471.379H468.879V249.79H471.379ZM471.379 241.67H473.879V237.61H471.379H468.879V241.67H471.379ZM471.379 233.55H473.879V229.49H471.379H468.879V233.55H471.379ZM471.379 225.43H473.879V221.37H471.379H468.879V225.43H471.379ZM471.379 217.31H473.879V213.25H471.379H468.879V217.31H471.379ZM471.379 209.19H473.879V205.13H471.379H468.879V209.19H471.379ZM471.379 201.07H473.879V197.01H471.379H468.879V201.07H471.379ZM471.379 192.95H473.879V188.89H471.379H468.879V192.95H471.379ZM471.379 184.83H473.879V180.77H471.379H468.879V184.83H471.379ZM471.379 176.71H473.879V172.65H471.379H468.879V176.71H471.379ZM471.379 168.59H473.879V164.53H471.379H468.879V168.59H471.379ZM471.379 160.47H473.879V156.41H471.379H468.879V160.47H471.379ZM471.379 152.35H473.879V148.29H471.379H468.879V152.35H471.379ZM471.379 144.23H473.879V140.17H471.379H468.879V144.23H471.379ZM471.379 136.11H473.879V132.05H471.379H468.879V136.11H471.379ZM471.379 127.99H473.879V123.93H471.379H468.879V127.99H471.379ZM471.379 119.87H473.879V115.81H471.379H468.879V119.87H471.379ZM471.379 111.75H473.879V107.69H471.379H468.879V111.75H471.379ZM471.379 103.63H473.879V99.57H471.379H468.879V103.63H471.379ZM471.379 95.5101H473.879V91.4501H471.379H468.879V95.5101H471.379ZM471.379 87.3901H473.879V83.3301H471.379H468.879V87.3901H471.379ZM471.379 79.2701H473.879V75.2101H471.379H468.879V79.2701H471.379ZM471.379 71.1501H473.879V67.0901H471.379H468.879V71.1501H471.379ZM471.379 63.0301H473.879V61H471.379H468.879V63.0301H471.379ZM471.379 61V63.5H473.405V61V58.5H471.379V61ZM477.457 61V63.5H481.509V61V58.5H477.457V61ZM485.56 61V63.5H489.612V61V58.5H485.56V61ZM493.664 61V63.5H497.716V61V58.5H493.664V61ZM501.767 61V63.5H505.819V61V58.5H501.767V61ZM509.871 61V63.5H513.922V61V58.5H509.871V61ZM517.974 61V63.5H522.026V61V58.5H517.974V61ZM526.078 61V63.5H530.129V61V58.5H526.078V61ZM534.181 61V63.5H538.233V61V58.5H534.181V61ZM542.284 61V63.5H546.336V61V58.5H542.284V61ZM550.388 61V63.5H554.44V61V58.5H550.388V61ZM558.491 61V63.5H562.543V61V58.5H558.491V61ZM566.595 61V63.5H570.647V61V58.5H566.595V61ZM574.698 61V63.5H578.75V61V58.5H574.698V61ZM582.802 61V63.5H586.853V61V58.5H582.802V61ZM590.905 61V63.5H594.957V61V58.5H590.905V61ZM599.009 61V63.5H603.06V61V58.5H599.009V61ZM607.112 61V63.5H609.138V61V58.5H607.112V61ZM609.138 61H606.638V63.03H609.138H611.638V61H609.138ZM609.138 67.09H606.638V71.15H609.138H611.638V67.09H609.138ZM609.138 75.21H606.638V79.27H609.138H611.638V75.21H609.138ZM609.138 83.33H606.638V87.39H609.138H611.638V83.33H609.138ZM609.138 91.45H606.638V95.51H609.138H611.638V91.45H609.138ZM609.138 99.57H606.638V103.63H609.138H611.638V99.57H609.138ZM609.138 107.69H606.638V111.75H609.138H611.638V107.69H609.138ZM609.138 115.81H606.638V119.87H609.138H611.638V115.81H609.138ZM609.138 123.93H606.638V127.99H609.138H611.638V123.93H609.138ZM609.138 132.05H606.638V136.11H609.138H611.638V132.05H609.138ZM609.138 140.17H606.638V144.23H609.138H611.638V140.17H609.138ZM609.138 148.29H606.638V152.35H609.138H611.638V148.29H609.138ZM609.138 156.41H606.638V160.47H609.138H611.638V156.41H609.138ZM609.138 164.53H606.638V168.59H609.138H611.638V164.53H609.138ZM609.138 172.65H606.638V176.71H609.138H611.638V172.65H609.138ZM609.138 180.77H606.638V184.83H609.138H611.638V180.77H609.138ZM609.138 188.89H606.638V192.95H609.138H611.638V188.89H609.138ZM609.138 197.01H606.638V201.07H609.138H611.638V197.01H609.138ZM609.138 205.13H606.638V209.19H609.138H611.638V205.13H609.138ZM609.138 213.25H606.638V217.31H609.138H611.638V213.25H609.138ZM609.138 221.37H606.638V225.43H609.138H611.638V221.37H609.138ZM609.138 229.49H606.638V233.55H609.138H611.638V229.49H609.138ZM609.138 237.61H606.638V241.67H609.138H611.638V237.61H609.138ZM609.138 245.73H606.638V249.79H609.138H611.638V245.73H609.138ZM609.138 253.85H606.638V257.91H609.138H611.638V253.85H609.138ZM609.138 261.97H606.638V264H609.138H611.638V261.97H609.138ZM609.138 264V266.5H611.147V264V261.5H609.138V264ZM615.165 264V266.5H619.183V264V261.5H615.165V264ZM623.201 264V266.5H627.219V264V261.5H623.201V264ZM631.237 264V266.5H635.255V264V261.5H631.237V264ZM639.273 264V266.5H643.291V264V261.5H639.273V264ZM647.309 264V266.5H651.327V264V261.5H647.309V264ZM655.344 264V266.5H659.362V264V261.5H655.344V264ZM663.38 264V266.5H667.398V264V261.5H663.38V264ZM671.416 264V266.5H675.434V264V261.5H671.416V264ZM679.452 264V266.5H683.47V264V261.5H679.452V264ZM687.488 264V266.5H691.506V264V261.5H687.488V264ZM695.524 264V266.5H699.542V264V261.5H695.524V264ZM703.56 264V266.5H707.578V264V261.5H703.56V264ZM711.596 264V266.5H715.614V264V261.5H711.596V264ZM719.632 264V266.5H723.65V264V261.5H719.632V264ZM727.668 264V266.5H731.686V264V261.5H727.668V264ZM735.704 264V266.5H739.722V264V261.5H735.704V264ZM743.74 264V266.5H747.758V264V261.5H743.74V264ZM751.776 264V266.5H755.793V264V261.5H751.776V264ZM759.811 264V266.5H763.829V264V261.5H759.811V264ZM767.847 264V266.5H771.865V264V261.5H767.847V264ZM775.883 264V266.5H779.901V264V261.5H775.883V264ZM783.919 264V266.5H787.937V264V261.5H783.919V264ZM791.955 264V266.5H795.973V264V261.5H791.955V264ZM799.991 264V266.5H802V264V261.5H799.991V264ZM802 264H804.5V261.97H802H799.5V264H802ZM802 257.91H804.5V253.85H802H799.5V257.91H802ZM802 249.79H804.5V245.73H802H799.5V249.79H802ZM802 241.67H804.5V237.61H802H799.5V241.67H802ZM802 233.55H804.5V229.49H802H799.5V233.55H802ZM802 225.43H804.5V221.37H802H799.5V225.43H802ZM802 217.31H804.5V213.25H802H799.5V217.31H802ZM802 209.19H804.5V205.13H802H799.5V209.19H802ZM802 201.07H804.5V197.01H802H799.5V201.07H802ZM802 192.95H804.5V188.89H802H799.5V192.95H802ZM802 184.83H804.5V180.77H802H799.5V184.83H802ZM802 176.71H804.5V172.65H802H799.5V176.71H802ZM802 168.59H804.5V164.53H802H799.5V168.59H802ZM802 160.47H804.5V156.41H802H799.5V160.47H802ZM802 152.35H804.5V148.29H802H799.5V152.35H802ZM802 144.23H804.5V140.17H802H799.5V144.23H802ZM802 136.11H804.5V132.05H802H799.5V136.11H802ZM802 127.99H804.5V123.93H802H799.5V127.99H802ZM802 119.87H804.5V115.81H802H799.5V119.87H802ZM802 111.75H804.5V107.69H802H799.5V111.75H802ZM802 103.63H804.5V99.57H802H799.5V103.63H802ZM802 95.5101H804.5V91.4501H802H799.5V95.5101H802ZM802 87.3901H804.5V83.3301H802H799.5V87.3901H802ZM802 79.2701H804.5V75.2101H802H799.5V79.2701H802ZM802 71.1501H804.5V67.0901H802H799.5V71.1501H802ZM802 63.0301H804.5V61H802H799.5V63.0301H802ZM3 264H0.5V266.5H3V264ZM177.494 264V266.5H179.994V264H177.494ZM177.494 61V58.5H174.994V61H177.494ZM355.05 61H357.55V58.5H355.05V61ZM355.05 264H352.55V266.5H355.05V264ZM471.379 264V266.5H473.879V264H471.379ZM471.379 61V58.5H468.879V61H471.379ZM609.138 61H611.638V58.5H609.138V61ZM609.138 264H606.638V266.5H609.138V264ZM802 264V266.5H804.5V264H802ZM788.667 61C788.667 68.3638 794.636 74.3333 802 74.3333C809.364 74.3333 815.333 68.3638 815.333 61C815.333 53.6362 809.364 47.6667 802 47.6667C794.636 47.6667 788.667 53.6362 788.667 61ZM3 61H0.5V63.03H3H5.5V61H3ZM3 67.09H0.5V71.15H3H5.5V67.09H3ZM3 75.21H0.5V79.27H3H5.5V75.21H3ZM3 83.33H0.5V87.39H3H5.5V83.33H3ZM3 91.45H0.5V95.51H3H5.5V91.45H3ZM3 99.57H0.5V103.63H3H5.5V99.57H3ZM3 107.69H0.5V111.75H3H5.5V107.69H3ZM3 115.81H0.5V119.87H3H5.5V115.81H3ZM3 123.93H0.5V127.99H3H5.5V123.93H3ZM3 132.05H0.5V136.11H3H5.5V132.05H3ZM3 140.17H0.5V144.23H3H5.5V140.17H3ZM3 148.29H0.5V152.35H3H5.5V148.29H3ZM3 156.41H0.5V160.47H3H5.5V156.41H3ZM3 164.53H0.5V168.59H3H5.5V164.53H3ZM3 172.65H0.5V176.71H3H5.5V172.65H3ZM3 180.77H0.5V184.83H3H5.5V180.77H3ZM3 188.89H0.5V192.95H3H5.5V188.89H3ZM3 197.01H0.5V201.07H3H5.5V197.01H3ZM3 205.13H0.5V209.19H3H5.5V205.13H3ZM3 213.25H0.5V217.31H3H5.5V213.25H3ZM3 221.37H0.5V225.43H3H5.5V221.37H3ZM3 229.49H0.5V233.55H3H5.5V229.49H3ZM3 237.61H0.5V241.67H3H5.5V237.61H3ZM3 245.73H0.5V249.79H3H5.5V245.73H3ZM3 253.85H0.5V257.91H3H5.5V253.85H3ZM3 261.97H0.5V264H3H5.5V261.97H3ZM3 264V266.5H4.98289V264V261.5H3V264ZM8.94867 264V266.5H12.9144V264V261.5H8.94867V264ZM16.8802 264V266.5H20.846V264V261.5H16.8802V264ZM24.8118 264V266.5H28.7776V264V261.5H24.8118V264ZM32.7433 264V266.5H36.7091V264V261.5H32.7433V264ZM40.6749 264V266.5H44.6407V264V261.5H40.6749V264ZM48.6064 264V266.5H52.5722V264V261.5H48.6064V264ZM56.538 264V266.5H60.5038V264V261.5H56.538V264ZM64.4696 264V266.5H68.4353V264V261.5H64.4696V264ZM72.4011 264V266.5H76.3669V264V261.5H72.4011V264ZM80.3327 264V266.5H84.2984V264V261.5H80.3327V264ZM88.2642 264V266.5H92.23V264V261.5H88.2642V264ZM96.1958 264V266.5H100.162V264V261.5H96.1958V264ZM104.127 264V266.5H108.093V264V261.5H104.127V264ZM112.059 264V266.5H116.025V264V261.5H112.059V264ZM119.99 264V266.5H123.956V264V261.5H119.99V264ZM127.922 264V266.5H131.888V264V261.5H127.922V264ZM135.854 264V266.5H139.819V264V261.5H135.854V264ZM143.785 264V266.5H147.751V264V261.5H143.785V264ZM151.717 264V266.5H155.682V264V261.5H151.717V264ZM159.648 264V266.5H163.614V264V261.5H159.648V264ZM167.58 264V266.5H171.545V264V261.5H167.58V264ZM175.511 264V266.5H177.494V264V261.5H175.511V264ZM177.494 264H179.994V261.97H177.494H174.994V264H177.494ZM177.494 257.91H179.994V253.85H177.494H174.994V257.91H177.494ZM177.494 249.79H179.994V245.73H177.494H174.994V249.79H177.494ZM177.494 241.67H179.994V237.61H177.494H174.994V241.67H177.494ZM177.494 233.55H179.994V229.49H177.494H174.994V233.55H177.494ZM177.494 225.43H179.994V221.37H177.494H174.994V225.43H177.494ZM177.494 217.31H179.994V213.25H177.494H174.994V217.31H177.494ZM177.494 209.19H179.994V205.13H177.494H174.994V209.19H177.494ZM177.494 201.07H179.994V197.01H177.494H174.994V201.07H177.494ZM177.494 192.95H179.994V188.89H177.494H174.994V192.95H177.494ZM177.494 184.83H179.994V180.77H177.494H174.994V184.83H177.494ZM177.494 176.71H179.994V172.65H177.494H174.994V176.71H177.494ZM177.494 168.59H179.994V164.53H177.494H174.994V168.59H177.494ZM177.494 160.47H179.994V156.41H177.494H174.994V160.47H177.494ZM177.494 152.35H179.994V148.29H177.494H174.994V152.35H177.494ZM177.494 144.23H179.994V140.17H177.494H174.994V144.23H177.494ZM177.494 136.11H179.994V132.05H177.494H174.994V136.11H177.494ZM177.494 127.99H179.994V123.93H177.494H174.994V127.99H177.494ZM177.494 119.87H179.994V115.81H177.494H174.994V119.87H177.494ZM177.494 111.75H179.994V107.69H177.494H174.994V111.75H177.494ZM177.494 103.63H179.994V99.57H177.494H174.994V103.63H177.494ZM177.494 95.5101H179.994V91.4501H177.494H174.994V95.5101H177.494ZM177.494 87.3901H179.994V83.3301H177.494H174.994V87.3901H177.494ZM177.494 79.2701H179.994V75.2101H177.494H174.994V79.2701H177.494ZM177.494 71.1501H179.994V67.0901H177.494H174.994V71.1501H177.494ZM177.494 63.0301H179.994V61H177.494H174.994V63.0301H177.494ZM177.494 61V63.5H179.512V61V58.5H177.494V61ZM183.547 61V63.5H187.583V61V58.5H183.547V61ZM191.618 61V63.5H195.653V61V58.5H191.618V61ZM199.689 61V63.5H203.724V61V58.5H199.689V61ZM207.759 61V63.5H211.795V61V58.5H207.759V61ZM215.83 61V63.5H219.865V61V58.5H215.83V61ZM223.901 61V63.5H227.936V61V58.5H223.901V61ZM231.972 61V63.5H236.007V61V58.5H231.972V61ZM240.042 61V63.5H244.078V61V58.5H240.042V61ZM248.113 61V63.5H252.148V61V58.5H248.113V61ZM256.184 61V63.5H260.219V61V58.5H256.184V61ZM264.254 61V63.5H268.29V61V58.5H264.254V61ZM272.325 61V63.5H276.36V61V58.5H272.325V61ZM280.396 61V63.5H284.431V61V58.5H280.396V61ZM288.466 61V63.5H292.502V61V58.5H288.466V61ZM296.537 61V63.5H300.573V61V58.5H296.537V61ZM304.608 61V63.5H308.643V61V58.5H304.608V61ZM312.679 61V63.5H316.714V61V58.5H312.679V61ZM320.749 61V63.5H324.785V61V58.5H320.749V61ZM328.82 61V63.5H332.855V61V58.5H328.82V61ZM336.891 61V63.5H340.926V61V58.5H336.891V61ZM344.961 61V63.5H348.997V61V58.5H344.961V61ZM353.032 61V63.5H355.05V61V58.5H353.032V61ZM355.05 61H352.55V63.03H355.05H357.55V61H355.05ZM355.05 67.09H352.55V71.15H355.05H357.55V67.09H355.05ZM355.05 75.21H352.55V79.27H355.05H357.55V75.21H355.05ZM355.05 83.33H352.55V87.39H355.05H357.55V83.33H355.05ZM355.05 91.45H352.55V95.51H355.05H357.55V91.45H355.05ZM355.05 99.57H352.55V103.63H355.05H357.55V99.57H355.05ZM355.05 107.69H352.55V111.75H355.05H357.55V107.69H355.05ZM355.05 115.81H352.55V119.87H355.05H357.55V115.81H355.05ZM355.05 123.93H352.55V127.99H355.05H357.55V123.93H355.05ZM355.05 132.05H352.55V136.11H355.05H357.55V132.05H355.05ZM355.05 140.17H352.55V144.23H355.05H357.55V140.17H355.05ZM355.05 148.29H352.55V152.35H355.05H357.55V148.29H355.05ZM355.05 156.41H352.55V160.47H355.05H357.55V156.41H355.05ZM355.05 164.53H352.55V168.59H355.05H357.55V164.53H355.05ZM355.05 172.65H352.55V176.71H355.05H357.55V172.65H355.05ZM355.05 180.77H352.55V184.83H355.05H357.55V180.77H355.05ZM355.05 188.89H352.55V192.95H355.05H357.55V188.89H355.05ZM355.05 197.01H352.55V201.07H355.05H357.55V197.01H355.05ZM355.05 205.13H352.55V209.19H355.05H357.55V205.13H355.05ZM355.05 213.25H352.55V217.31H355.05H357.55V213.25H355.05ZM355.05 221.37H352.55V225.43H355.05H357.55V221.37H355.05ZM355.05 229.49H352.55V233.55H355.05H357.55V229.49H355.05ZM355.05 237.61H352.55V241.67H355.05H357.55V237.61H355.05ZM355.05 245.73H352.55V249.79H355.05H357.55V245.73H355.05ZM355.05 253.85H352.55V257.91H355.05H357.55V253.85H355.05ZM355.05 261.97H352.55V264H355.05H357.55V261.97H355.05ZM355.05 264V266.5H356.989V264V261.5H355.05V264ZM360.866 264V266.5H364.744V264V261.5H360.866V264ZM368.622 264V266.5H372.499V264V261.5H368.622V264ZM376.377 264V266.5H380.255V264V261.5H376.377V264ZM384.132 264V266.5H388.01V264V261.5H384.132V264ZM391.887 264V266.5H395.765V264V261.5H391.887V264ZM399.643 264V266.5H403.52V264V261.5H399.643V264ZM407.398 264V266.5H411.276V264V261.5H407.398V264ZM415.153 264V266.5H419.031V264V261.5H415.153V264ZM422.909 264V266.5H426.786V264V261.5H422.909V264ZM430.664 264V266.5H434.542V264V261.5H430.664V264ZM438.419 264V266.5H442.297V264V261.5H438.419V264ZM446.175 264V266.5H450.052V264V261.5H446.175V264ZM453.93 264V266.5H457.808V264V261.5H453.93V264ZM461.685 264V266.5H465.563V264V261.5H461.685V264ZM469.44 264V266.5H471.379V264V261.5H469.44V264ZM471.379 264H473.879V261.97H471.379H468.879V264H471.379ZM471.379 257.91H473.879V253.85H471.379H468.879V257.91H471.379ZM471.379 249.79H473.879V245.73H471.379H468.879V249.79H471.379ZM471.379 241.67H473.879V237.61H471.379H468.879V241.67H471.379ZM471.379 233.55H473.879V229.49H471.379H468.879V233.55H471.379ZM471.379 225.43H473.879V221.37H471.379H468.879V225.43H471.379ZM471.379 217.31H473.879V213.25H471.379H468.879V217.31H471.379ZM471.379 209.19H473.879V205.13H471.379H468.879V209.19H471.379ZM471.379 201.07H473.879V197.01H471.379H468.879V201.07H471.379ZM471.379 192.95H473.879V188.89H471.379H468.879V192.95H471.379ZM471.379 184.83H473.879V180.77H471.379H468.879V184.83H471.379ZM471.379 176.71H473.879V172.65H471.379H468.879V176.71H471.379ZM471.379 168.59H473.879V164.53H471.379H468.879V168.59H471.379ZM471.379 160.47H473.879V156.41H471.379H468.879V160.47H471.379ZM471.379 152.35H473.879V148.29H471.379H468.879V152.35H471.379ZM471.379 144.23H473.879V140.17H471.379H468.879V144.23H471.379ZM471.379 136.11H473.879V132.05H471.379H468.879V136.11H471.379ZM471.379 127.99H473.879V123.93H471.379H468.879V127.99H471.379ZM471.379 119.87H473.879V115.81H471.379H468.879V119.87H471.379ZM471.379 111.75H473.879V107.69H471.379H468.879V111.75H471.379ZM471.379 103.63H473.879V99.57H471.379H468.879V103.63H471.379ZM471.379 95.5101H473.879V91.4501H471.379H468.879V95.5101H471.379ZM471.379 87.3901H473.879V83.3301H471.379H468.879V87.3901H471.379ZM471.379 79.2701H473.879V75.2101H471.379H468.879V79.2701H471.379ZM471.379 71.1501H473.879V67.0901H471.379H468.879V71.1501H471.379ZM471.379 63.0301H473.879V61H471.379H468.879V63.0301H471.379ZM471.379 61V63.5H473.405V61V58.5H471.379V61ZM477.457 61V63.5H481.509V61V58.5H477.457V61ZM485.56 61V63.5H489.612V61V58.5H485.56V61ZM493.664 61V63.5H497.716V61V58.5H493.664V61ZM501.767 61V63.5H505.819V61V58.5H501.767V61ZM509.871 61V63.5H513.922V61V58.5H509.871V61ZM517.974 61V63.5H522.026V61V58.5H517.974V61ZM526.078 61V63.5H530.129V61V58.5H526.078V61ZM534.181 61V63.5H538.233V61V58.5H534.181V61ZM542.284 61V63.5H546.336V61V58.5H542.284V61ZM550.388 61V63.5H554.44V61V58.5H550.388V61ZM558.491 61V63.5H562.543V61V58.5H558.491V61ZM566.595 61V63.5H570.647V61V58.5H566.595V61ZM574.698 61V63.5H578.75V61V58.5H574.698V61ZM582.802 61V63.5H586.853V61V58.5H582.802V61ZM590.905 61V63.5H594.957V61V58.5H590.905V61ZM599.009 61V63.5H603.06V61V58.5H599.009V61ZM607.112 61V63.5H609.138V61V58.5H607.112V61ZM609.138 61H606.638V63.03H609.138H611.638V61H609.138ZM609.138 67.09H606.638V71.15H609.138H611.638V67.09H609.138ZM609.138 75.21H606.638V79.27H609.138H611.638V75.21H609.138ZM609.138 83.33H606.638V87.39H609.138H611.638V83.33H609.138ZM609.138 91.45H606.638V95.51H609.138H611.638V91.45H609.138ZM609.138 99.57H606.638V103.63H609.138H611.638V99.57H609.138ZM609.138 107.69H606.638V111.75H609.138H611.638V107.69H609.138ZM609.138 115.81H606.638V119.87H609.138H611.638V115.81H609.138ZM609.138 123.93H606.638V127.99H609.138H611.638V123.93H609.138ZM609.138 132.05H606.638V136.11H609.138H611.638V132.05H609.138ZM609.138 140.17H606.638V144.23H609.138H611.638V140.17H609.138ZM609.138 148.29H606.638V152.35H609.138H611.638V148.29H609.138ZM609.138 156.41H606.638V160.47H609.138H611.638V156.41H609.138ZM609.138 164.53H606.638V168.59H609.138H611.638V164.53H609.138ZM609.138 172.65H606.638V176.71H609.138H611.638V172.65H609.138ZM609.138 180.77H606.638V184.83H609.138H611.638V180.77H609.138ZM609.138 188.89H606.638V192.95H609.138H611.638V188.89H609.138ZM609.138 197.01H606.638V201.07H609.138H611.638V197.01H609.138ZM609.138 205.13H606.638V209.19H609.138H611.638V205.13H609.138ZM609.138 213.25H606.638V217.31H609.138H611.638V213.25H609.138ZM609.138 221.37H606.638V225.43H609.138H611.638V221.37H609.138ZM609.138 229.49H606.638V233.55H609.138H611.638V229.49H609.138ZM609.138 237.61H606.638V241.67H609.138H611.638V237.61H609.138ZM609.138 245.73H606.638V249.79H609.138H611.638V245.73H609.138ZM609.138 253.85H606.638V257.91H609.138H611.638V253.85H609.138ZM609.138 261.97H606.638V264H609.138H611.638V261.97H609.138ZM609.138 264V266.5H611.147V264V261.5H609.138V264ZM615.165 264V266.5H619.183V264V261.5H615.165V264ZM623.201 264V266.5H627.219V264V261.5H623.201V264ZM631.237 264V266.5H635.255V264V261.5H631.237V264ZM639.273 264V266.5H643.291V264V261.5H639.273V264ZM647.309 264V266.5H651.327V264V261.5H647.309V264ZM655.344 264V266.5H659.362V264V261.5H655.344V264ZM663.38 264V266.5H667.398V264V261.5H663.38V264ZM671.416 264V266.5H675.434V264V261.5H671.416V264ZM679.452 264V266.5H683.47V264V261.5H679.452V264ZM687.488 264V266.5H691.506V264V261.5H687.488V264ZM695.524 264V266.5H699.542V264V261.5H695.524V264ZM703.56 264V266.5H707.578V264V261.5H703.56V264ZM711.596 264V266.5H715.614V264V261.5H711.596V264ZM719.632 264V266.5H723.65V264V261.5H719.632V264ZM727.668 264V266.5H731.686V264V261.5H727.668V264ZM735.704 264V266.5H739.722V264V261.5H735.704V264ZM743.74 264V266.5H747.758V264V261.5H743.74V264ZM751.776 264V266.5H755.793V264V261.5H751.776V264ZM759.811 264V266.5H763.829V264V261.5H759.811V264ZM767.847 264V266.5H771.865V264V261.5H767.847V264ZM775.883 264V266.5H779.901V264V261.5H775.883V264ZM783.919 264V266.5H787.937V264V261.5H783.919V264ZM791.955 264V266.5H795.973V264V261.5H791.955V264ZM799.991 264V266.5H802V264V261.5H799.991V264ZM802 264H804.5V261.97H802H799.5V264H802ZM802 257.91H804.5V253.85H802H799.5V257.91H802ZM802 249.79H804.5V245.73H802H799.5V249.79H802ZM802 241.67H804.5V237.61H802H799.5V241.67H802ZM802 233.55H804.5V229.49H802H799.5V233.55H802ZM802 225.43H804.5V221.37H802H799.5V225.43H802ZM802 217.31H804.5V213.25H802H799.5V217.31H802ZM802 209.19H804.5V205.13H802H799.5V209.19H802ZM802 201.07H804.5V197.01H802H799.5V201.07H802ZM802 192.95H804.5V188.89H802H799.5V192.95H802ZM802 184.83H804.5V180.77H802H799.5V184.83H802ZM802 176.71H804.5V172.65H802H799.5V176.71H802ZM802 168.59H804.5V164.53H802H799.5V168.59H802ZM802 160.47H804.5V156.41H802H799.5V160.47H802ZM802 152.35H804.5V148.29H802H799.5V152.35H802ZM802 144.23H804.5V140.17H802H799.5V144.23H802ZM802 136.11H804.5V132.05H802H799.5V136.11H802ZM802 127.99H804.5V123.93H802H799.5V127.99H802ZM802 119.87H804.5V115.81H802H799.5V119.87H802ZM802 111.75H804.5V107.69H802H799.5V111.75H802ZM802 103.63H804.5V99.57H802H799.5V103.63H802ZM802 95.5101H804.5V91.4501H802H799.5V95.5101H802ZM802 87.3901H804.5V83.3301H802H799.5V87.3901H802ZM802 79.2701H804.5V75.2101H802H799.5V79.2701H802ZM802 71.1501H804.5V67.0901H802H799.5V71.1501H802ZM802 63.0301H804.5V61H802H799.5V63.0301H802Z" fill="#ECF360"/>
<rect y="33" width="180" height="32" fill="#ECF360"/>
<path d="M826 49.2727H830.545V53.8182H826V49.2727ZM826 53.8182H830.545V58.3636H826V53.8182ZM826 58.3636H830.545V62.9091H826V58.3636ZM826 62.9091H830.545V67.4545H826V62.9091ZM826 67.4545H830.545V72H826V67.4545ZM844.082 67.4545H848.627V72H844.082V67.4545ZM844.082 62.9091H848.627V67.4545H844.082V62.9091ZM844.082 58.3636H848.627V62.9091H844.082V58.3636ZM844.082 53.8182H848.627V58.3636H844.082V53.8182ZM848.627 49.2727H853.173V53.8182H848.627V49.2727ZM853.173 53.8182H857.718V58.3636H853.173V53.8182ZM853.173 58.3636H857.718V62.9091H853.173V58.3636ZM853.173 62.9091H857.718V67.4545H853.173V62.9091ZM853.173 67.4545H857.718V72H853.173V67.4545ZM844.082 49.2727H848.627V53.8182H844.082V49.2727Z" fill="black"/>
<path d="M16.0909 38.2727H20.6364V42.8182H16.0909V38.2727ZM11.5455 38.2727H16.0909V42.8182H11.5455V38.2727ZM7 42.8182H11.5455V47.3636H7V42.8182ZM7 47.3636H11.5455V51.9091H7V47.3636ZM11.5455 47.3636H16.0909V51.9091H11.5455V47.3636ZM16.0909 47.3636H20.6364V51.9091H16.0909V47.3636ZM16.0909 51.9091H20.6364V56.4545H16.0909V51.9091ZM16.0909 56.4545H20.6364V61H16.0909V56.4545ZM11.5455 56.4545H16.0909V61H11.5455V56.4545ZM7 56.4545H11.5455V61H7V56.4545ZM7 38.2727H11.5455V42.8182H7V38.2727ZM34.1641 38.2727H38.7095V42.8182H34.1641V38.2727ZM38.7095 38.2727H43.255V42.8182H38.7095V38.2727ZM43.255 38.2727H47.8004V42.8182H43.255V38.2727ZM43.255 42.8182H47.8004V47.3636H43.255V42.8182ZM43.255 47.3636H47.8004V51.9091H43.255V47.3636ZM43.255 51.9091H47.8004V56.4545H43.255V51.9091ZM43.255 56.4545H47.8004V61H43.255V56.4545ZM38.7095 56.4545H43.255V61H38.7095V56.4545ZM34.1641 56.4545H38.7095V61H34.1641V56.4545ZM34.1641 51.9091H38.7095V56.4545H34.1641V51.9091ZM34.1641 47.3636H38.7095V51.9091H34.1641V47.3636ZM34.1641 42.8182H38.7095V47.3636H34.1641V42.8182ZM65.8736 38.2727H70.419V42.8182H65.8736V38.2727ZM61.3281 38.2727H65.8736V42.8182H61.3281V38.2727ZM61.3281 42.8182H65.8736V47.3636H61.3281V42.8182ZM61.3281 47.3636H65.8736V51.9091H61.3281V47.3636ZM61.3281 51.9091H65.8736V56.4545H61.3281V51.9091ZM61.3281 56.4545H65.8736V61H61.3281V56.4545ZM65.8736 56.4545H70.419V61H65.8736V56.4545ZM83.9512 38.2727H88.4966V42.8182H83.9512V38.2727ZM83.9512 42.8182H88.4966V47.3636H83.9512V42.8182ZM83.9512 47.3636H88.4966V51.9091H83.9512V47.3636ZM83.9512 51.9091H88.4966V56.4545H83.9512V51.9091ZM83.9512 56.4545H88.4966V61H83.9512V56.4545ZM102.033 38.2727H106.579V42.8182H102.033V38.2727ZM102.033 42.8182H106.579V47.3636H102.033V42.8182ZM102.033 47.3636H106.579V51.9091H102.033V47.3636ZM102.033 51.9091H106.579V56.4545H102.033V51.9091ZM102.033 56.4545H106.579V61H102.033V56.4545ZM106.579 38.2727H111.124V42.8182H106.579V38.2727ZM106.579 56.4545H111.124V61H106.579V56.4545ZM106.579 47.3636H111.124V51.9091H106.579V47.3636ZM111.124 38.2727H115.67V42.8182H111.124V38.2727ZM111.124 56.4545H115.67V61H111.124V56.4545ZM129.197 38.2727H133.743V42.8182H129.197V38.2727ZM133.743 38.2727H138.288V42.8182H133.743V38.2727ZM138.288 38.2727H142.834V42.8182H138.288V38.2727ZM133.743 42.8182H138.288V47.3636H133.743V42.8182ZM133.743 47.3636H138.288V51.9091H133.743V47.3636ZM133.743 51.9091H138.288V56.4545H133.743V51.9091ZM133.743 56.4545H138.288V61H133.743V56.4545ZM156.361 38.2727H160.907V42.8182H156.361V38.2727ZM156.361 42.8182H160.907V47.3636H156.361V42.8182ZM156.361 47.3636H160.907V51.9091H156.361V47.3636ZM160.907 51.9091H165.452V56.4545H160.907V51.9091ZM160.907 56.4545H165.452V61H160.907V56.4545ZM165.452 38.2727H169.998V42.8182H165.452V38.2727ZM165.452 42.8182H169.998V47.3636H165.452V42.8182ZM165.452 47.3636H169.998V51.9091H165.452V47.3636Z" fill="black"/>
<path d="M1089.48 79.6607H1092.96V83.1429H1089.48V79.6607ZM1103.41 79.6607H1106.89V83.1429H1103.41V79.6607ZM1103.41 83.1429H1106.89V86.625H1103.41V83.1429ZM1106.89 79.6607H1110.38V83.1429H1106.89V79.6607ZM1106.89 83.1429H1110.38V86.625H1106.89V83.1429ZM1106.89 86.625H1110.38V90.1071H1106.89V86.625ZM1106.89 90.1071H1110.38V93.5893H1106.89V90.1071ZM1106.89 93.5893H1110.38V97.0714H1106.89V93.5893ZM1106.89 97.0714H1110.38V100.554H1106.89V97.0714ZM1106.89 100.554H1110.38V104.036H1106.89V100.554ZM1106.89 104.036H1110.38V107.518H1106.89V104.036ZM1103.41 104.036H1106.89V107.518H1103.41V104.036ZM1103.41 100.554H1106.89V104.036H1103.41V100.554ZM1103.41 97.0714H1106.89V100.554H1103.41V97.0714ZM1103.41 93.5893H1106.89V97.0714H1103.41V93.5893ZM1103.41 90.1071H1106.89V93.5893H1103.41V90.1071ZM1103.41 86.625H1106.89V90.1071H1103.41V86.625ZM1099.93 100.554H1103.41V104.036H1099.93V100.554ZM1099.93 104.036H1103.41V107.518H1099.93V104.036ZM1103.41 107.518H1106.89V111H1103.41V107.518ZM1099.93 107.518H1103.41V111H1099.93V107.518ZM1096.45 107.518H1099.93V111H1096.45V107.518ZM1096.45 104.036H1099.93V107.518H1096.45V104.036ZM1092.96 107.518H1096.45V111H1092.96V107.518ZM1089.48 107.518H1092.96V111H1089.48V107.518ZM1089.48 104.036H1092.96V107.518H1089.48V104.036ZM1092.96 104.036H1096.45V107.518H1092.96V104.036ZM1092.96 100.554H1096.45V104.036H1092.96V100.554ZM1089.48 100.554H1092.96V104.036H1089.48V100.554ZM1086 104.036H1089.48V107.518H1086V104.036ZM1086 100.554H1089.48V104.036H1086V100.554ZM1086 97.0714H1089.48V100.554H1086V97.0714ZM1086 93.5893H1089.48V97.0714H1086V93.5893ZM1086 90.1071H1089.48V93.5893H1086V90.1071ZM1086 86.625H1089.48V90.1071H1086V86.625ZM1086 83.1429H1089.48V86.625H1086V83.1429ZM1089.48 83.1429H1092.96V86.625H1089.48V83.1429ZM1086 79.6607H1089.48V83.1429H1086V79.6607ZM1089.48 86.625H1092.96V90.1071H1089.48V86.625ZM1089.48 90.1071H1092.96V93.5893H1089.48V90.1071ZM1089.48 93.5893H1092.96V97.0714H1089.48V93.5893ZM1089.48 97.0714H1092.96V100.554H1089.48V97.0714ZM1086 76.1786H1089.48V79.6607H1086V76.1786ZM1089.48 76.1786H1092.96V79.6607H1089.48V76.1786ZM1103.41 76.1786H1106.89V79.6607H1103.41V76.1786ZM1106.89 76.1786H1110.38V79.6607H1106.89V76.1786ZM1125.57 86.625H1129.05V90.1071H1125.57V86.625ZM1125.57 83.1429H1129.05V86.625H1125.57V83.1429ZM1129.05 83.1429H1132.53V86.625H1129.05V83.1429ZM1129.05 86.625H1132.53V90.1071H1129.05V86.625ZM1129.05 90.1071H1132.53V93.5893H1129.05V90.1071ZM1129.05 93.5893H1132.53V97.0714H1129.05V93.5893ZM1129.05 97.0714H1132.53V100.554H1129.05V97.0714ZM1125.57 97.0714H1129.05V100.554H1125.57V97.0714ZM1125.57 93.5893H1129.05V97.0714H1125.57V93.5893ZM1125.57 90.1071H1129.05V93.5893H1125.57V90.1071ZM1125.57 100.554H1129.05V104.036H1125.57V100.554ZM1129.05 100.554H1132.53V104.036H1129.05V100.554ZM1129.05 104.036H1132.53V107.518H1129.05V104.036ZM1129.05 107.518H1132.53V111H1129.05V107.518ZM1125.57 107.518H1129.05V111H1125.57V107.518ZM1125.57 104.036H1129.05V107.518H1125.57V104.036ZM1132.53 86.625H1136.01V90.1071H1132.53V86.625ZM1136.01 86.625H1139.49V90.1071H1136.01V86.625ZM1139.49 86.625H1142.98V90.1071H1139.49V86.625ZM1139.49 83.1429H1142.98V86.625H1139.49V83.1429ZM1136.01 83.1429H1139.49V86.625H1136.01V83.1429ZM1132.53 90.1071H1136.01V93.5893H1132.53V90.1071ZM1142.98 86.625H1146.46V90.1071H1142.98V86.625ZM1139.49 90.1071H1142.98V93.5893H1139.49V90.1071ZM1161.64 86.625H1165.12V90.1071H1161.64V86.625ZM1161.64 83.1429H1165.12V86.625H1161.64V83.1429ZM1165.12 83.1429H1168.61V86.625H1165.12V83.1429ZM1165.12 86.625H1168.61V90.1071H1165.12V86.625ZM1165.12 90.1071H1168.61V93.5893H1165.12V90.1071ZM1165.12 93.5893H1168.61V97.0714H1165.12V93.5893ZM1165.12 97.0714H1168.61V100.554H1165.12V97.0714ZM1161.64 97.0714H1165.12V100.554H1161.64V97.0714ZM1161.64 93.5893H1165.12V97.0714H1161.64V93.5893ZM1161.64 90.1071H1165.12V93.5893H1161.64V90.1071ZM1161.64 100.554H1165.12V104.036H1161.64V100.554ZM1165.12 100.554H1168.61V104.036H1165.12V100.554ZM1165.12 104.036H1168.61V107.518H1165.12V104.036ZM1165.12 107.518H1168.61V111H1165.12V107.518ZM1161.64 107.518H1165.12V111H1161.64V107.518ZM1161.64 104.036H1165.12V107.518H1161.64V104.036ZM1179.05 107.518H1182.53V111H1179.05V107.518ZM1182.53 104.036H1186.02V107.518H1182.53V104.036ZM1182.53 100.554H1186.02V104.036H1182.53V100.554ZM1182.53 97.0714H1186.02V100.554H1182.53V97.0714ZM1182.53 93.5893H1186.02V97.0714H1182.53V93.5893ZM1182.53 90.1071H1186.02V93.5893H1182.53V90.1071ZM1182.53 86.625H1186.02V90.1071H1182.53V86.625ZM1179.05 93.5893H1182.53V97.0714H1179.05V93.5893ZM1179.05 97.0714H1182.53V100.554H1179.05V97.0714ZM1179.05 100.554H1182.53V104.036H1179.05V100.554ZM1179.05 104.036H1182.53V107.518H1179.05V104.036ZM1179.05 90.1071H1182.53V93.5893H1179.05V90.1071ZM1168.61 86.625H1172.09V90.1071H1168.61V86.625ZM1172.09 86.625H1175.57V90.1071H1172.09V86.625ZM1175.57 86.625H1179.05V90.1071H1175.57V86.625ZM1175.57 83.1429H1179.05V86.625H1175.57V83.1429ZM1179.05 83.1429H1182.53V86.625H1179.05V83.1429ZM1179.05 86.625H1182.53V90.1071H1179.05V86.625ZM1172.09 83.1429H1175.57V86.625H1172.09V83.1429ZM1161.64 76.1786H1165.12V79.6607H1161.64V76.1786ZM1165.12 76.1786H1168.61V79.6607H1165.12V76.1786ZM1165.12 79.6607H1168.61V83.1429H1165.12V79.6607ZM1161.64 79.6607H1165.12V83.1429H1161.64V79.6607ZM1168.61 107.518H1172.09V111H1168.61V107.518ZM1172.09 107.518H1175.57V111H1172.09V107.518ZM1175.57 107.518H1179.05V111H1175.57V107.518ZM1175.57 104.036H1179.05V107.518H1175.57V104.036ZM1172.09 104.036H1175.57V107.518H1172.09V104.036ZM1168.61 104.036H1172.09V107.518H1168.61V104.036ZM1222.1 111H1218.62V107.518H1222.1V111ZM1222.1 107.518H1218.62V104.036H1222.1V107.518ZM1218.62 107.518H1215.14V104.036H1218.62V107.518ZM1215.14 111H1211.65V107.518H1215.14V111ZM1211.65 111H1208.17V107.518H1211.65V111ZM1208.17 111H1204.69V107.518H1208.17V111ZM1208.17 107.518H1204.69V104.036H1208.17V107.518ZM1211.65 107.518H1208.17V104.036H1211.65V107.518ZM1204.69 107.518H1201.21V104.036H1204.69V107.518ZM1204.69 104.036H1201.21V100.554H1204.69V104.036ZM1204.69 90.1071H1201.21V86.625H1204.69V90.1071ZM1208.17 90.1071H1204.69V86.625H1208.17V90.1071ZM1208.17 104.036H1204.69V100.554H1208.17V104.036ZM1211.65 90.1071H1208.17V86.625H1211.65V90.1071ZM1208.17 86.625H1204.69V83.1429H1208.17V86.625ZM1211.65 86.625H1208.17V83.1429H1211.65V86.625ZM1215.14 86.625H1211.65V83.1429H1215.14V86.625ZM1218.62 86.625H1215.14V83.1429H1218.62V86.625ZM1222.1 86.625H1218.62V83.1429H1222.1V86.625ZM1222.1 90.1071H1218.62V86.625H1222.1V90.1071ZM1218.62 90.1071H1215.14V86.625H1218.62V90.1071ZM1222.1 93.5893H1218.62V90.1071H1222.1V93.5893ZM1225.58 90.1071H1222.1V86.625H1225.58V90.1071ZM1225.58 93.5893H1222.1V90.1071H1225.58V93.5893ZM1225.58 97.0714H1222.1V93.5893H1225.58V97.0714ZM1225.58 100.554H1222.1V97.0714H1225.58V100.554ZM1225.58 104.036H1222.1V100.554H1225.58V104.036ZM1225.58 107.518H1222.1V104.036H1225.58V107.518ZM1222.1 104.036H1218.62V100.554H1222.1V104.036ZM1222.1 100.554H1218.62V97.0714H1222.1V100.554ZM1222.1 97.0714H1218.62V93.5893H1222.1V97.0714ZM1215.14 90.1071H1211.65V86.625H1215.14V90.1071ZM1215.14 107.518H1211.65V104.036H1215.14V107.518ZM1222.1 107.518H1225.58V111H1222.1V107.518ZM1215.14 93.5893H1218.62V97.0714H1215.14V93.5893ZM1211.65 93.5893H1215.14V97.0714H1211.65V93.5893ZM1208.17 93.5893H1211.65V97.0714H1208.17V93.5893ZM1204.69 93.5893H1208.17V97.0714H1204.69V93.5893ZM1201.21 97.0714H1204.69V100.554H1201.21V97.0714ZM1204.69 97.0714H1208.17V100.554H1204.69V97.0714ZM1215.14 97.0714H1218.62V100.554H1215.14V97.0714ZM1211.65 97.0714H1215.14V100.554H1211.65V97.0714ZM1208.17 97.0714H1211.65V100.554H1208.17V97.0714ZM1240.77 86.625H1244.26V90.1071H1240.77V86.625ZM1240.77 83.1429H1244.26V86.625H1240.77V83.1429ZM1244.26 83.1429H1247.74V86.625H1244.26V83.1429ZM1244.26 86.625H1247.74V90.1071H1244.26V86.625ZM1244.26 90.1071H1247.74V93.5893H1244.26V90.1071ZM1244.26 93.5893H1247.74V97.0714H1244.26V93.5893ZM1244.26 97.0714H1247.74V100.554H1244.26V97.0714ZM1240.77 97.0714H1244.26V100.554H1240.77V97.0714ZM1240.77 93.5893H1244.26V97.0714H1240.77V93.5893ZM1240.77 90.1071H1244.26V93.5893H1240.77V90.1071ZM1240.77 100.554H1244.26V104.036H1240.77V100.554ZM1244.26 100.554H1247.74V104.036H1244.26V100.554ZM1244.26 104.036H1247.74V107.518H1244.26V104.036ZM1244.26 107.518H1247.74V111H1244.26V107.518ZM1240.77 107.518H1244.26V111H1240.77V107.518ZM1240.77 104.036H1244.26V107.518H1240.77V104.036ZM1258.18 107.518H1261.67V111H1258.18V107.518ZM1261.67 107.518H1265.15V111H1261.67V107.518ZM1261.67 104.036H1265.15V107.518H1261.67V104.036ZM1261.67 100.554H1265.15V104.036H1261.67V100.554ZM1261.67 97.0714H1265.15V100.554H1261.67V97.0714ZM1261.67 93.5893H1265.15V97.0714H1261.67V93.5893ZM1261.67 90.1071H1265.15V93.5893H1261.67V90.1071ZM1261.67 86.625H1265.15V90.1071H1261.67V86.625ZM1258.18 93.5893H1261.67V97.0714H1258.18V93.5893ZM1258.18 97.0714H1261.67V100.554H1258.18V97.0714ZM1258.18 100.554H1261.67V104.036H1258.18V100.554ZM1258.18 104.036H1261.67V107.518H1258.18V104.036ZM1258.18 90.1071H1261.67V93.5893H1258.18V90.1071ZM1247.74 86.625H1251.22V90.1071H1247.74V86.625ZM1251.22 86.625H1254.7V90.1071H1251.22V86.625ZM1254.7 86.625H1258.18V90.1071H1254.7V86.625ZM1254.7 83.1429H1258.18V86.625H1254.7V83.1429ZM1258.18 83.1429H1261.67V86.625H1258.18V83.1429ZM1258.18 86.625H1261.67V90.1071H1258.18V86.625ZM1251.22 83.1429H1254.7V86.625H1251.22V83.1429ZM1086 146.179H1089.48V149.661H1086V146.179ZM1089.48 146.179H1092.96V149.661H1089.48V146.179ZM1089.48 149.661H1092.96V153.143H1089.48V149.661ZM1089.48 153.143H1092.96V156.625H1089.48V153.143ZM1089.48 156.625H1092.96V160.107H1089.48V156.625ZM1086 156.625H1089.48V160.107H1086V156.625ZM1086 153.143H1089.48V156.625H1086V153.143ZM1086 149.661H1089.48V153.143H1086V149.661ZM1086 160.107H1089.48V163.589H1086V160.107ZM1086 163.589H1089.48V167.071H1086V163.589ZM1086 167.071H1089.48V170.554H1086V167.071ZM1089.48 163.589H1092.96V167.071H1089.48V163.589ZM1089.48 160.107H1092.96V163.589H1089.48V160.107ZM1089.48 167.071H1092.96V170.554H1089.48V167.071ZM1089.48 170.554H1092.96V174.036H1089.48V170.554ZM1086 174.036H1089.48V177.518H1086V174.036ZM1086 170.554H1089.48V174.036H1086V170.554ZM1086 177.518H1089.48V181H1086V177.518ZM1089.48 177.518H1092.96V181H1089.48V177.518ZM1089.48 174.036H1092.96V177.518H1089.48V174.036ZM1092.96 177.518H1096.45V181H1092.96V177.518ZM1096.45 177.518H1099.93V181H1096.45V177.518ZM1099.93 177.518H1103.41V181H1099.93V177.518ZM1099.93 174.036H1103.41V177.518H1099.93V174.036ZM1096.45 174.036H1099.93V177.518H1096.45V174.036ZM1092.96 174.036H1096.45V177.518H1092.96V174.036ZM1092.96 146.179H1096.45V149.661H1092.96V146.179ZM1096.45 146.179H1099.93V149.661H1096.45V146.179ZM1099.93 146.179H1103.41V149.661H1099.93V146.179ZM1103.41 146.179H1106.89V149.661H1103.41V146.179ZM1099.93 149.661H1103.41V153.143H1099.93V149.661ZM1096.45 149.661H1099.93V153.143H1096.45V149.661ZM1092.96 149.661H1096.45V153.143H1092.96V149.661ZM1092.96 163.589H1096.45V167.071H1092.96V163.589ZM1096.45 160.107H1099.93V163.589H1096.45V160.107ZM1092.96 160.107H1096.45V163.589H1092.96V160.107ZM1096.45 163.589H1099.93V167.071H1096.45V163.589ZM1103.41 149.661H1106.89V153.143H1103.41V149.661ZM1103.41 174.036H1106.89V177.518H1103.41V174.036ZM1103.41 177.518H1106.89V181H1103.41V177.518ZM1099.93 160.107H1103.41V163.589H1099.93V160.107ZM1099.93 163.589H1103.41V167.071H1099.93V163.589ZM1146.45 156.625V160.107H1142.97V156.625H1146.45ZM1146.45 153.143V156.625H1142.97V153.143H1146.45ZM1142.97 153.143V156.625H1139.49V153.143H1142.97ZM1142.97 156.625V160.107H1139.49V156.625H1142.97ZM1142.97 160.107V163.589H1139.49V160.107H1142.97ZM1142.97 163.589V167.071H1139.49V163.589H1142.97ZM1142.97 167.071V170.554H1139.49V167.071H1142.97ZM1146.45 167.071V170.554H1142.97V167.071H1146.45ZM1146.45 163.589V167.071H1142.97V163.589H1146.45ZM1146.45 160.107V163.589H1142.97V160.107H1146.45ZM1146.45 170.554V174.036H1142.97V170.554H1146.45ZM1142.97 170.554V174.036H1139.49V170.554H1142.97ZM1142.97 174.036V177.518H1139.49V174.036H1142.97ZM1142.97 177.518V181H1139.49V177.518H1142.97ZM1146.45 177.518V181H1142.97V177.518H1146.45ZM1146.45 174.036V177.518H1142.97V174.036H1146.45ZM1129.04 177.518V181H1125.56V177.518H1129.04ZM1125.56 174.036V177.518H1122.08V174.036H1125.56ZM1125.56 170.554V174.036H1122.08V170.554H1125.56ZM1125.56 167.071V170.554H1122.08V167.071H1125.56ZM1125.56 163.589V167.071H1122.08V163.589H1125.56ZM1125.56 160.107V163.589H1122.08V160.107H1125.56ZM1125.56 156.625V160.107H1122.08V156.625H1125.56ZM1129.04 163.589V167.071H1125.56V163.589H1129.04ZM1129.04 167.071V170.554H1125.56V167.071H1129.04ZM1129.04 170.554V174.036H1125.56V170.554H1129.04ZM1129.04 174.036V177.518H1125.56V174.036H1129.04ZM1129.04 160.107V163.589H1125.56V160.107H1129.04ZM1132.52 156.625V160.107H1129.04V156.625H1132.52ZM1132.52 153.143V156.625H1129.04V153.143H1132.52ZM1129.04 153.143V156.625H1125.56V153.143H1129.04ZM1129.04 156.625V160.107H1125.56V156.625H1129.04ZM1136 153.143V156.625H1132.52V153.143H1136ZM1136 177.518V181H1132.52V177.518H1136ZM1132.52 177.518V181H1129.04V177.518H1132.52ZM1132.52 174.036V177.518H1129.04V174.036H1132.52ZM1136 174.036V177.518H1132.52V174.036H1136ZM1139.49 174.036V177.518H1136V174.036H1139.49ZM1139.49 153.143V156.625H1136V153.143H1139.49ZM1139.49 156.625V160.107H1136V156.625H1139.49ZM1136 156.625V160.107H1132.52V156.625H1136ZM1146.45 181V184.482H1142.97V181H1146.45ZM1142.97 181V184.482H1139.49V181H1142.97ZM1142.97 184.482V187.964H1139.49V184.482H1142.97ZM1146.45 184.482V187.964H1142.97V184.482H1146.45ZM1186.02 177.518H1182.53V174.036H1186.02V177.518ZM1186.02 181H1182.53V177.518H1186.02V181ZM1182.53 181H1179.05V177.518H1182.53V181ZM1182.53 177.518H1179.05V174.036H1182.53V177.518ZM1182.53 174.036H1179.05V170.554H1182.53V174.036ZM1182.53 170.554H1179.05V167.071H1182.53V170.554ZM1182.53 167.071H1179.05V163.589H1182.53V167.071ZM1186.02 167.071H1182.53V163.589H1186.02V167.071ZM1186.02 170.554H1182.53V167.071H1186.02V170.554ZM1186.02 174.036H1182.53V170.554H1186.02V174.036ZM1186.02 163.589H1182.53V160.107H1186.02V163.589ZM1182.53 163.589H1179.05V160.107H1182.53V163.589ZM1182.53 160.107H1179.05V156.625H1182.53V160.107ZM1182.53 156.625H1179.05V153.143H1182.53V156.625ZM1186.02 156.625H1182.53V153.143H1186.02V156.625ZM1186.02 160.107H1182.53V156.625H1186.02V160.107ZM1168.61 156.625H1165.12V153.143H1168.61V156.625ZM1165.12 156.625H1161.64V153.143H1165.12V156.625ZM1165.12 160.107H1161.64V156.625H1165.12V160.107ZM1165.12 163.589H1161.64V160.107H1165.12V163.589ZM1165.12 167.071H1161.64V163.589H1165.12V167.071ZM1165.12 170.554H1161.64V167.071H1165.12V170.554ZM1165.12 174.036H1161.64V170.554H1165.12V174.036ZM1165.12 177.518H1161.64V174.036H1165.12V177.518ZM1168.61 170.554H1165.12V167.071H1168.61V170.554ZM1168.61 167.071H1165.12V163.589H1168.61V167.071ZM1168.61 163.589H1165.12V160.107H1168.61V163.589ZM1168.61 160.107H1165.12V156.625H1168.61V160.107ZM1168.61 174.036H1165.12V170.554H1168.61V174.036ZM1179.05 177.518H1175.57V174.036H1179.05V177.518ZM1175.57 177.518H1172.09V174.036H1175.57V177.518ZM1172.09 177.518H1168.61V174.036H1172.09V177.518ZM1172.09 181H1168.61V177.518H1172.09V181ZM1168.61 181H1165.12V177.518H1168.61V181ZM1168.61 177.518H1165.12V174.036H1168.61V177.518ZM1175.57 181H1172.09V177.518H1175.57V181ZM1201.21 146.179H1208.17V153.143H1201.21V146.179ZM1201.21 156.625H1208.17V181H1201.21V156.625ZM1237.31 174.036H1240.79V177.518H1237.31V174.036ZM1237.31 177.518H1240.79V181H1237.31V177.518ZM1233.83 177.518H1237.31V181H1233.83V177.518ZM1233.83 174.036H1237.31V177.518H1233.83V174.036ZM1230.35 177.518H1233.83V181H1230.35V177.518ZM1230.35 174.036H1233.83V177.518H1230.35V174.036ZM1226.86 174.036H1230.35V177.518H1226.86V174.036ZM1226.86 170.554H1230.35V174.036H1226.86V170.554ZM1226.86 167.071H1230.35V170.554H1226.86V167.071ZM1226.86 163.589H1230.35V167.071H1226.86V163.589ZM1226.86 160.107H1230.35V163.589H1226.86V160.107ZM1226.86 156.625H1230.35V160.107H1226.86V156.625ZM1230.35 167.071H1233.83V170.554H1230.35V167.071ZM1230.35 170.554H1233.83V174.036H1230.35V170.554ZM1230.35 163.589H1233.83V167.071H1230.35V163.589ZM1230.35 160.107H1233.83V163.589H1230.35V160.107ZM1230.35 146.179H1233.83V149.661H1230.35V146.179ZM1230.35 149.661H1233.83V153.143H1230.35V149.661ZM1230.35 153.143H1233.83V156.625H1230.35V153.143ZM1230.35 156.625H1233.83V160.107H1230.35V156.625ZM1226.86 153.143H1230.35V156.625H1226.86V153.143ZM1223.38 156.625H1226.86V160.107H1223.38V156.625ZM1233.83 156.625H1237.31V160.107H1233.83V156.625ZM1237.31 156.625H1240.79V160.107H1237.31V156.625ZM1226.86 149.661H1230.35V153.143H1226.86V149.661ZM1223.38 160.107H1226.86V163.589H1223.38V160.107ZM1233.83 160.107H1237.31V163.589H1233.83V160.107ZM1237.31 160.107H1240.79V163.589H1237.31V160.107ZM1276.86 181H1273.38V177.518H1276.86V181ZM1276.86 177.518H1273.38V174.036H1276.86V177.518ZM1273.38 177.518H1269.89V174.036H1273.38V177.518ZM1269.89 181H1266.41V177.518H1269.89V181ZM1266.41 181H1262.93V177.518H1266.41V181ZM1262.93 181H1259.45V177.518H1262.93V181ZM1262.93 177.518H1259.45V174.036H1262.93V177.518ZM1266.41 177.518H1262.93V174.036H1266.41V177.518ZM1259.45 177.518H1255.96V174.036H1259.45V177.518ZM1259.45 174.036H1255.96V170.554H1259.45V174.036ZM1259.45 160.107H1255.96V156.625H1259.45V160.107ZM1262.93 160.107H1259.45V156.625H1262.93V160.107ZM1262.93 174.036H1259.45V170.554H1262.93V174.036ZM1266.41 160.107H1262.93V156.625H1266.41V160.107ZM1262.93 156.625H1259.45V153.143H1262.93V156.625ZM1266.41 156.625H1262.93V153.143H1266.41V156.625ZM1269.89 156.625H1266.41V153.143H1269.89V156.625ZM1273.38 156.625H1269.89V153.143H1273.38V156.625ZM1276.86 156.625H1273.38V153.143H1276.86V156.625ZM1276.86 160.107H1273.38V156.625H1276.86V160.107ZM1273.38 160.107H1269.89V156.625H1273.38V160.107ZM1276.86 163.589H1273.38V160.107H1276.86V163.589ZM1280.34 160.107H1276.86V156.625H1280.34V160.107ZM1280.34 163.589H1276.86V160.107H1280.34V163.589ZM1280.34 167.071H1276.86V163.589H1280.34V167.071ZM1280.34 170.554H1276.86V167.071H1280.34V170.554ZM1280.34 174.036H1276.86V170.554H1280.34V174.036ZM1280.34 177.518H1276.86V174.036H1280.34V177.518ZM1276.86 174.036H1273.38V170.554H1276.86V174.036ZM1276.86 170.554H1273.38V167.071H1276.86V170.554ZM1276.86 167.071H1273.38V163.589H1276.86V167.071ZM1269.89 160.107H1266.41V156.625H1269.89V160.107ZM1269.89 177.518H1266.41V174.036H1269.89V177.518ZM1276.86 177.518H1280.34V181H1276.86V177.518ZM1269.89 163.589H1273.38V167.071H1269.89V163.589ZM1266.41 163.589H1269.89V167.071H1266.41V163.589ZM1262.93 163.589H1266.41V167.071H1262.93V163.589ZM1259.45 163.589H1262.93V167.071H1259.45V163.589ZM1255.96 167.071H1259.45V170.554H1255.96V167.071ZM1259.45 167.071H1262.93V170.554H1259.45V167.071ZM1269.89 167.071H1273.38V170.554H1269.89V167.071ZM1266.41 167.071H1269.89V170.554H1266.41V167.071ZM1262.93 167.071H1266.41V170.554H1262.93V167.071ZM1295.53 156.625H1299.01V160.107H1295.53V156.625ZM1295.53 153.143H1299.01V156.625H1295.53V153.143ZM1299.01 153.143H1302.5V156.625H1299.01V153.143ZM1299.01 156.625H1302.5V160.107H1299.01V156.625ZM1299.01 160.107H1302.5V163.589H1299.01V160.107ZM1299.01 163.589H1302.5V167.071H1299.01V163.589ZM1299.01 167.071H1302.5V170.554H1299.01V167.071ZM1295.53 167.071H1299.01V170.554H1295.53V167.071ZM1295.53 163.589H1299.01V167.071H1295.53V163.589ZM1295.53 160.107H1299.01V163.589H1295.53V160.107ZM1295.53 170.554H1299.01V174.036H1295.53V170.554ZM1299.01 170.554H1302.5V174.036H1299.01V170.554ZM1299.01 174.036H1302.5V177.518H1299.01V174.036ZM1299.01 177.518H1302.5V181H1299.01V177.518ZM1295.53 177.518H1299.01V181H1295.53V177.518ZM1295.53 174.036H1299.01V177.518H1295.53V174.036ZM1312.94 177.518H1316.42V181H1312.94V177.518ZM1316.42 174.036H1319.91V177.518H1316.42V174.036ZM1316.42 170.554H1319.91V174.036H1316.42V170.554ZM1316.42 167.071H1319.91V170.554H1316.42V167.071ZM1316.42 163.589H1319.91V167.071H1316.42V163.589ZM1316.42 160.107H1319.91V163.589H1316.42V160.107ZM1316.42 156.625H1319.91V160.107H1316.42V156.625ZM1312.94 163.589H1316.42V167.071H1312.94V163.589ZM1312.94 167.071H1316.42V170.554H1312.94V167.071ZM1312.94 170.554H1316.42V174.036H1312.94V170.554ZM1312.94 174.036H1316.42V177.518H1312.94V174.036ZM1312.94 160.107H1316.42V163.589H1312.94V160.107ZM1302.5 156.625H1305.98V160.107H1302.5V156.625ZM1305.98 156.625H1309.46V160.107H1305.98V156.625ZM1309.46 156.625H1312.94V160.107H1309.46V156.625ZM1309.46 153.143H1312.94V156.625H1309.46V153.143ZM1312.94 153.143H1316.42V156.625H1312.94V153.143ZM1312.94 156.625H1316.42V160.107H1312.94V156.625ZM1305.98 153.143H1309.46V156.625H1305.98V153.143ZM1295.53 146.179H1299.01V149.661H1295.53V146.179ZM1299.01 146.179H1302.5V149.661H1299.01V146.179ZM1299.01 149.661H1302.5V153.143H1299.01V149.661ZM1295.53 149.661H1299.01V153.143H1295.53V149.661ZM1302.5 177.518H1305.98V181H1302.5V177.518ZM1305.98 177.518H1309.46V181H1305.98V177.518ZM1309.46 177.518H1312.94V181H1309.46V177.518ZM1309.46 174.036H1312.94V177.518H1309.46V174.036ZM1305.98 174.036H1309.46V177.518H1305.98V174.036ZM1302.5 174.036H1305.98V177.518H1302.5V174.036ZM1335.1 146.179H1342.06V153.143H1335.1V146.179ZM1335.1 156.625H1342.06V181H1335.1V156.625ZM1357.27 146.179H1360.75V149.661H1357.27V146.179ZM1360.75 146.179H1364.24V149.661H1360.75V146.179ZM1360.75 149.661H1364.24V153.143H1360.75V149.661ZM1360.75 153.143H1364.24V156.625H1360.75V153.143ZM1360.75 156.625H1364.24V160.107H1360.75V156.625ZM1360.75 160.107H1364.24V163.589H1360.75V160.107ZM1360.75 163.589H1364.24V167.071H1360.75V163.589ZM1357.27 163.589H1360.75V167.071H1357.27V163.589ZM1357.27 167.071H1360.75V170.554H1357.27V167.071ZM1357.27 170.554H1360.75V174.036H1357.27V170.554ZM1357.27 174.036H1360.75V177.518H1357.27V174.036ZM1357.27 177.518H1360.75V181H1357.27V177.518ZM1360.75 177.518H1364.24V181H1360.75V177.518ZM1360.75 174.036H1364.24V177.518H1360.75V174.036ZM1360.75 170.554H1364.24V174.036H1360.75V170.554ZM1360.75 167.071H1364.24V170.554H1360.75V167.071ZM1357.27 160.107H1360.75V163.589H1357.27V160.107ZM1357.27 156.625H1360.75V160.107H1357.27V156.625ZM1357.27 153.143H1360.75V156.625H1357.27V153.143ZM1357.27 149.661H1360.75V153.143H1357.27V149.661ZM1379.44 146.179H1386.41V153.143H1379.44V146.179ZM1379.44 156.625H1386.41V181H1379.44V156.625ZM1415.55 174.036H1419.03V177.518H1415.55V174.036ZM1415.55 177.518H1419.03V181H1415.55V177.518ZM1412.06 177.518H1415.55V181H1412.06V177.518ZM1412.06 174.036H1415.55V177.518H1412.06V174.036ZM1408.58 177.518H1412.06V181H1408.58V177.518ZM1408.58 174.036H1412.06V177.518H1408.58V174.036ZM1405.1 174.036H1408.58V177.518H1405.1V174.036ZM1405.1 170.554H1408.58V174.036H1405.1V170.554ZM1405.1 167.071H1408.58V170.554H1405.1V167.071ZM1405.1 163.589H1408.58V167.071H1405.1V163.589ZM1405.1 160.107H1408.58V163.589H1405.1V160.107ZM1405.1 156.625H1408.58V160.107H1405.1V156.625ZM1408.58 167.071H1412.06V170.554H1408.58V167.071ZM1408.58 170.554H1412.06V174.036H1408.58V170.554ZM1408.58 163.589H1412.06V167.071H1408.58V163.589ZM1408.58 160.107H1412.06V163.589H1408.58V160.107ZM1408.58 146.179H1412.06V149.661H1408.58V146.179ZM1408.58 149.661H1412.06V153.143H1408.58V149.661ZM1408.58 153.143H1412.06V156.625H1408.58V153.143ZM1408.58 156.625H1412.06V160.107H1408.58V156.625ZM1405.1 153.143H1408.58V156.625H1405.1V153.143ZM1401.62 156.625H1405.1V160.107H1401.62V156.625ZM1412.06 156.625H1415.55V160.107H1412.06V156.625ZM1415.55 156.625H1419.03V160.107H1415.55V156.625ZM1405.1 149.661H1408.58V153.143H1405.1V149.661ZM1401.62 160.107H1405.1V163.589H1401.62V160.107ZM1412.06 160.107H1415.55V163.589H1412.06V160.107ZM1415.55 160.107H1419.03V163.589H1415.55V160.107ZM1434.2 153.143H1437.68V156.625H1434.2V153.143ZM1437.68 153.143H1441.17V156.625H1437.68V153.143ZM1437.68 156.625H1441.17V160.107H1437.68V156.625ZM1437.68 160.107H1441.17V163.589H1437.68V160.107ZM1437.68 163.589H1441.17V167.071H1437.68V163.589ZM1434.2 160.107H1437.68V163.589H1434.2V160.107ZM1434.2 156.625H1437.68V160.107H1434.2V156.625ZM1434.2 163.589H1437.68V167.071H1434.2V163.589ZM1434.2 167.071H1437.68V170.554H1434.2V167.071ZM1437.68 167.071H1441.17V170.554H1437.68V167.071ZM1437.68 170.554H1441.17V174.036H1437.68V170.554ZM1441.17 170.554H1444.65V174.036H1441.17V170.554ZM1441.17 174.036H1444.65V177.518H1441.17V174.036ZM1444.65 174.036H1448.13V177.518H1444.65V174.036ZM1448.13 174.036H1451.61V177.518H1448.13V174.036ZM1448.13 170.554H1451.61V174.036H1448.13V170.554ZM1448.13 167.071H1451.61V170.554H1448.13V167.071ZM1451.61 167.071H1455.09V170.554H1451.61V167.071ZM1451.61 170.554H1455.09V174.036H1451.61V170.554ZM1451.61 163.589H1455.09V167.071H1451.61V163.589ZM1448.13 163.589H1451.61V167.071H1448.13V163.589ZM1448.13 153.143H1451.61V156.625H1448.13V153.143ZM1451.61 153.143H1455.09V156.625H1451.61V153.143ZM1451.61 156.625H1455.09V160.107H1451.61V156.625ZM1451.61 160.107H1455.09V163.589H1451.61V160.107ZM1448.13 156.625H1451.61V160.107H1448.13V156.625ZM1448.13 160.107H1451.61V163.589H1448.13V160.107ZM1444.65 177.518H1448.13V181H1444.65V177.518ZM1441.17 177.518H1444.65V181H1441.17V177.518ZM1441.17 181H1444.65V184.482H1441.17V181ZM1437.68 181H1441.17V184.482H1437.68V181ZM1437.68 177.518H1441.17V181H1437.68V177.518ZM1437.68 184.482H1441.17V187.964H1437.68V184.482ZM1434.2 184.482H1437.68V187.964H1434.2V184.482ZM1434.2 181H1437.68V184.482H1434.2V181ZM1444.65 170.554H1448.13V174.036H1444.65V170.554ZM1441.17 167.071H1444.65V170.554H1441.17V167.071ZM1086 216.179H1089.48V219.661H1086V216.179ZM1089.48 216.179H1092.96V219.661H1089.48V216.179ZM1092.96 216.179H1096.45V219.661H1092.96V216.179ZM1096.45 216.179H1099.93V219.661H1096.45V216.179ZM1099.93 216.179H1103.41V219.661H1099.93V216.179ZM1103.41 216.179H1106.89V219.661H1103.41V216.179ZM1103.41 219.661H1106.89V223.143H1103.41V219.661ZM1099.93 219.661H1103.41V223.143H1099.93V219.661ZM1096.45 219.661H1099.93V223.143H1096.45V219.661ZM1092.96 219.661H1096.45V223.143H1092.96V219.661ZM1089.48 219.661H1092.96V223.143H1089.48V219.661ZM1086 219.661H1089.48V223.143H1086V219.661ZM1106.89 219.661H1110.38V223.143H1106.89V219.661ZM1103.41 223.143H1106.89V226.625H1103.41V223.143ZM1106.89 223.143H1110.38V226.625H1106.89V223.143ZM1106.89 226.625H1110.38V230.107H1106.89V226.625ZM1106.89 230.107H1110.38V233.589H1106.89V230.107ZM1103.41 230.107H1106.89V233.589H1103.41V230.107ZM1103.41 226.625H1106.89V230.107H1103.41V226.625ZM1103.41 233.589H1106.89V237.071H1103.41V233.589ZM1103.41 237.071H1106.89V240.554H1103.41V237.071ZM1099.93 237.071H1103.41V240.554H1099.93V237.071ZM1099.93 233.589H1103.41V237.071H1099.93V233.589ZM1096.45 233.589H1099.93V237.071H1096.45V233.589ZM1096.45 237.071H1099.93V240.554H1096.45V237.071ZM1092.96 237.071H1096.45V240.554H1092.96V237.071ZM1092.96 233.589H1096.45V237.071H1092.96V233.589ZM1089.48 233.589H1092.96V237.071H1089.48V233.589ZM1086 233.589H1089.48V237.071H1086V233.589ZM1086 237.071H1089.48V240.554H1086V237.071ZM1089.48 237.071H1092.96V240.554H1089.48V237.071ZM1086 223.143H1089.48V226.625H1086V223.143ZM1089.48 223.143H1092.96V226.625H1089.48V223.143ZM1089.48 226.625H1092.96V230.107H1089.48V226.625ZM1089.48 230.107H1092.96V233.589H1089.48V230.107ZM1086 226.625H1089.48V230.107H1086V226.625ZM1086 230.107H1089.48V233.589H1086V230.107ZM1086 240.554H1089.48V244.036H1086V240.554ZM1089.48 240.554H1092.96V244.036H1089.48V240.554ZM1089.48 244.036H1092.96V247.518H1089.48V244.036ZM1089.48 247.518H1092.96V251H1089.48V247.518ZM1086 247.518H1089.48V251H1086V247.518ZM1086 244.036H1089.48V247.518H1086V244.036ZM1106.89 233.589H1110.38V237.071H1106.89V233.589ZM1125.57 226.625H1129.05V230.107H1125.57V226.625ZM1125.57 223.143H1129.05V226.625H1125.57V223.143ZM1129.05 223.143H1132.53V226.625H1129.05V223.143ZM1129.05 226.625H1132.53V230.107H1129.05V226.625ZM1129.05 230.107H1132.53V233.589H1129.05V230.107ZM1129.05 233.589H1132.53V237.071H1129.05V233.589ZM1129.05 237.071H1132.53V240.554H1129.05V237.071ZM1125.57 237.071H1129.05V240.554H1125.57V237.071ZM1125.57 233.589H1129.05V237.071H1125.57V233.589ZM1125.57 230.107H1129.05V233.589H1125.57V230.107ZM1125.57 240.554H1129.05V244.036H1125.57V240.554ZM1129.05 240.554H1132.53V244.036H1129.05V240.554ZM1129.05 244.036H1132.53V247.518H1129.05V244.036ZM1129.05 247.518H1132.53V251H1129.05V247.518ZM1125.57 247.518H1129.05V251H1125.57V247.518ZM1125.57 244.036H1129.05V247.518H1125.57V244.036ZM1132.53 226.625H1136.01V230.107H1132.53V226.625ZM1136.01 226.625H1139.49V230.107H1136.01V226.625ZM1139.49 226.625H1142.98V230.107H1139.49V226.625ZM1139.49 223.143H1142.98V226.625H1139.49V223.143ZM1136.01 223.143H1139.49V226.625H1136.01V223.143ZM1132.53 230.107H1136.01V233.589H1132.53V230.107ZM1142.98 226.625H1146.46V230.107H1142.98V226.625ZM1139.49 230.107H1142.98V233.589H1139.49V230.107ZM1168.61 223.143H1172.09V226.625H1168.61V223.143ZM1165.12 223.143H1168.61V226.625H1165.12V223.143ZM1165.12 226.625H1168.61V230.107H1165.12V226.625ZM1168.61 226.625H1172.09V230.107H1168.61V226.625ZM1172.09 223.143H1175.57V226.625H1172.09V223.143ZM1175.57 223.143H1179.05V226.625H1175.57V223.143ZM1179.05 223.143H1182.53V226.625H1179.05V223.143ZM1179.05 226.625H1182.53V230.107H1179.05V226.625ZM1175.57 226.625H1179.05V230.107H1175.57V226.625ZM1179.05 233.589H1182.53V237.071H1179.05V233.589ZM1182.53 226.625H1186.02V230.107H1182.53V226.625ZM1182.53 230.107H1186.02V233.589H1182.53V230.107ZM1182.53 233.589H1186.02V237.071H1182.53V233.589ZM1182.53 237.071H1186.02V240.554H1182.53V237.071ZM1182.53 240.554H1186.02V244.036H1182.53V240.554ZM1182.53 244.036H1186.02V247.518H1182.53V244.036ZM1179.05 244.036H1182.53V247.518H1179.05V244.036ZM1179.05 240.554H1182.53V244.036H1179.05V240.554ZM1179.05 237.071H1182.53V240.554H1179.05V237.071ZM1179.05 230.107H1182.53V233.589H1179.05V230.107ZM1175.57 244.036H1179.05V247.518H1175.57V244.036ZM1179.05 247.518H1182.53V251H1179.05V247.518ZM1175.57 247.518H1179.05V251H1175.57V247.518ZM1172.09 247.518H1175.57V251H1172.09V247.518ZM1168.61 247.518H1172.09V251H1168.61V247.518ZM1165.12 247.518H1168.61V251H1165.12V247.518ZM1165.12 244.036H1168.61V247.518H1165.12V244.036ZM1168.61 244.036H1172.09V247.518H1168.61V244.036ZM1165.12 240.554H1168.61V244.036H1165.12V240.554ZM1161.64 244.036H1165.12V247.518H1161.64V244.036ZM1161.64 240.554H1165.12V244.036H1161.64V240.554ZM1161.64 237.071H1165.12V240.554H1161.64V237.071ZM1161.64 233.589H1165.12V237.071H1161.64V233.589ZM1161.64 230.107H1165.12V233.589H1161.64V230.107ZM1161.64 226.625H1165.12V230.107H1161.64V226.625ZM1165.12 230.107H1168.61V233.589H1165.12V230.107ZM1165.12 233.589H1168.61V237.071H1165.12V233.589ZM1165.12 237.071H1168.61V240.554H1165.12V237.071ZM1172.09 244.036H1175.57V247.518H1172.09V244.036ZM1172.09 226.625H1175.57V230.107H1172.09V226.625ZM1204.69 216.179H1211.65V223.143H1204.69V216.179ZM1201.21 251H1204.69V226.625H1211.65V254.482H1208.17V257.964H1201.21V251ZM1233.77 223.143H1237.26V226.625H1233.77V223.143ZM1230.29 223.143H1233.77V226.625H1230.29V223.143ZM1230.29 226.625H1233.77V230.107H1230.29V226.625ZM1233.77 226.625H1237.26V230.107H1233.77V226.625ZM1237.26 223.143H1240.74V226.625H1237.26V223.143ZM1240.74 223.143H1244.22V226.625H1240.74V223.143ZM1244.22 223.143H1247.7V226.625H1244.22V223.143ZM1244.22 226.625H1247.7V230.107H1244.22V226.625ZM1240.74 226.625H1244.22V230.107H1240.74V226.625ZM1247.7 226.625H1251.18V230.107H1247.7V226.625ZM1247.7 230.107H1251.18V233.589H1247.7V230.107ZM1247.7 244.036H1251.18V247.518H1247.7V244.036ZM1244.22 244.036H1247.7V247.518H1244.22V244.036ZM1244.22 230.107H1247.7V233.589H1244.22V230.107ZM1240.74 244.036H1244.22V247.518H1240.74V244.036ZM1244.22 247.518H1247.7V251H1244.22V247.518ZM1240.74 247.518H1244.22V251H1240.74V247.518ZM1237.26 247.518H1240.74V251H1237.26V247.518ZM1233.77 247.518H1237.26V251H1233.77V247.518ZM1230.29 247.518H1233.77V251H1230.29V247.518ZM1230.29 244.036H1233.77V247.518H1230.29V244.036ZM1233.77 244.036H1237.26V247.518H1233.77V244.036ZM1230.29 240.554H1233.77V244.036H1230.29V240.554ZM1226.81 244.036H1230.29V247.518H1226.81V244.036ZM1226.81 240.554H1230.29V244.036H1226.81V240.554ZM1226.81 237.071H1230.29V240.554H1226.81V237.071ZM1226.81 233.589H1230.29V237.071H1226.81V233.589ZM1226.81 230.107H1230.29V233.589H1226.81V230.107ZM1226.81 226.625H1230.29V230.107H1226.81V226.625ZM1230.29 230.107H1233.77V233.589H1230.29V230.107ZM1230.29 233.589H1233.77V237.071H1230.29V233.589ZM1230.29 237.071H1233.77V240.554H1230.29V237.071ZM1237.26 244.036H1240.74V247.518H1237.26V244.036ZM1237.26 226.625H1240.74V230.107H1237.26V226.625ZM1244.22 233.589H1247.7V237.071H1244.22V233.589ZM1247.7 233.589H1251.18V237.071H1247.7V233.589ZM1233.77 237.071H1237.26V240.554H1233.77V237.071ZM1237.26 237.071H1240.74V240.554H1237.26V237.071ZM1240.74 237.071H1244.22V240.554H1240.74V237.071ZM1244.22 237.071H1247.7V240.554H1244.22V237.071ZM1247.7 237.071H1251.18V240.554H1247.7V237.071ZM1240.74 233.589H1244.22V237.071H1240.74V233.589ZM1237.26 233.589H1240.74V237.071H1237.26V233.589ZM1233.77 233.589H1237.26V237.071H1233.77V233.589ZM1273.34 223.143H1276.82V226.625H1273.34V223.143ZM1269.86 223.143H1273.34V226.625H1269.86V223.143ZM1269.86 226.625H1273.34V230.107H1269.86V226.625ZM1273.34 226.625H1276.82V230.107H1273.34V226.625ZM1276.82 223.143H1280.3V226.625H1276.82V223.143ZM1280.3 223.143H1283.79V226.625H1280.3V223.143ZM1283.79 223.143H1287.27V226.625H1283.79V223.143ZM1283.79 226.625H1287.27V230.107H1283.79V226.625ZM1280.3 226.625H1283.79V230.107H1280.3V226.625ZM1287.27 226.625H1290.75V230.107H1287.27V226.625ZM1287.27 230.107H1290.75V233.589H1287.27V230.107ZM1287.27 240.554H1290.75V244.036H1287.27V240.554ZM1287.27 244.036H1290.75V247.518H1287.27V244.036ZM1283.79 244.036H1287.27V247.518H1283.79V244.036ZM1283.79 240.554H1287.27V244.036H1283.79V240.554ZM1283.79 230.107H1287.27V233.589H1283.79V230.107ZM1280.3 244.036H1283.79V247.518H1280.3V244.036ZM1283.79 247.518H1287.27V251H1283.79V247.518ZM1280.3 247.518H1283.79V251H1280.3V247.518ZM1276.82 247.518H1280.3V251H1276.82V247.518ZM1273.34 247.518H1276.82V251H1273.34V247.518ZM1269.86 247.518H1273.34V251H1269.86V247.518ZM1269.86 244.036H1273.34V247.518H1269.86V244.036ZM1273.34 244.036H1276.82V247.518H1273.34V244.036ZM1269.86 240.554H1273.34V244.036H1269.86V240.554ZM1266.38 244.036H1269.86V247.518H1266.38V244.036ZM1266.38 240.554H1269.86V244.036H1266.38V240.554ZM1266.38 237.071H1269.86V240.554H1266.38V237.071ZM1266.38 233.589H1269.86V237.071H1266.38V233.589ZM1266.38 230.107H1269.86V233.589H1266.38V230.107ZM1266.38 226.625H1269.86V230.107H1266.38V226.625ZM1269.86 230.107H1273.34V233.589H1269.86V230.107ZM1269.86 233.589H1273.34V237.071H1269.86V233.589ZM1269.86 237.071H1273.34V240.554H1269.86V237.071ZM1276.82 244.036H1280.3V247.518H1276.82V244.036ZM1276.82 226.625H1280.3V230.107H1276.82V226.625ZM1319.87 244.036H1323.35V247.518H1319.87V244.036ZM1319.87 247.518H1323.35V251H1319.87V247.518ZM1316.39 247.518H1319.87V251H1316.39V247.518ZM1316.39 244.036H1319.87V247.518H1316.39V244.036ZM1312.91 247.518H1316.39V251H1312.91V247.518ZM1312.91 244.036H1316.39V247.518H1312.91V244.036ZM1309.42 244.036H1312.91V247.518H1309.42V244.036ZM1309.42 240.554H1312.91V244.036H1309.42V240.554ZM1309.42 237.071H1312.91V240.554H1309.42V237.071ZM1309.42 233.589H1312.91V237.071H1309.42V233.589ZM1309.42 230.107H1312.91V233.589H1309.42V230.107ZM1309.42 226.625H1312.91V230.107H1309.42V226.625ZM1312.91 237.071H1316.39V240.554H1312.91V237.071ZM1312.91 240.554H1316.39V244.036H1312.91V240.554ZM1312.91 233.589H1316.39V237.071H1312.91V233.589ZM1312.91 230.107H1316.39V233.589H1312.91V230.107ZM1312.91 216.179H1316.39V219.661H1312.91V216.179ZM1312.91 219.661H1316.39V223.143H1312.91V219.661ZM1312.91 223.143H1316.39V226.625H1312.91V223.143ZM1312.91 226.625H1316.39V230.107H1312.91V226.625ZM1309.42 223.143H1312.91V226.625H1309.42V223.143ZM1305.94 226.625H1309.42V230.107H1305.94V226.625ZM1316.39 226.625H1319.87V230.107H1316.39V226.625ZM1319.87 226.625H1323.35V230.107H1319.87V226.625ZM1309.42 219.661H1312.91V223.143H1309.42V219.661ZM1305.94 230.107H1309.42V233.589H1305.94V230.107ZM1316.39 230.107H1319.87V233.589H1316.39V230.107ZM1319.87 230.107H1323.35V233.589H1319.87V230.107ZM1338.52 244.036H1342.01V247.518H1338.52V244.036ZM1342.01 244.036H1345.49V247.518H1342.01V244.036ZM1342.01 247.518H1345.49V251H1342.01V247.518ZM1338.52 247.518H1342.01V251H1338.52V247.518Z" fill="black"/>
<path d="M919.8 233C918.133 233 917.3 232.167 917.3 230.5V182.5C917.3 181.9 917.333 181.367 917.4 180.9C917.533 180.433 917.833 179.967 918.3 179.5L931.3 166.5V163L918 149.7C917.533 149.167 917.233 148.667 917.1 148.2C917.033 147.733 917 147.233 917 146.7V102.2C917 100.533 917.833 99.7 919.5 99.7H947.8C949.467 99.7 950.3 100.533 950.3 102.2V151.2H972.7V102.2C972.7 100.533 973.533 99.7 975.2 99.7H1003.5C1005.17 99.7 1006 100.533 1006 102.2V146.7C1006 147.233 1005.97 147.733 1005.9 148.2C1005.83 148.667 1005.53 149.167 1005 149.7L991.7 163V166.5L1004.7 179.5C1005.23 179.967 1005.53 180.433 1005.6 180.9C1005.67 181.367 1005.7 181.9 1005.7 182.5V230.5C1005.7 232.167 1004.87 233 1003.2 233H974.8C973.133 233 972.3 232.167 972.3 230.5V177.8H950.7V230.5C950.7 232.167 949.867 233 948.2 233H919.8Z" fill="black"/>
</svg>
